G04 #@! TF.GenerationSoftware,KiCad,Pcbnew,9.0.2*
G04 #@! TF.CreationDate,2025-06-06T13:56:25-05:00*
G04 #@! TF.ProjectId,bow,626f772e-6b69-4636-9164-5f7063625858,rev?*
G04 #@! TF.SameCoordinates,Original*
G04 #@! TF.FileFunction,Legend,Bot*
G04 #@! TF.FilePolarity,Positive*
%FSLAX46Y46*%
G04 Gerber Fmt 4.6, Leading zero omitted, Abs format (unit mm)*
G04 Created by KiCad (PCBNEW 9.0.2) date 2025-06-06 13:56:25*
%MOMM*%
%LPD*%
G01*
G04 APERTURE LIST*
G04 Aperture macros list*
%AMRoundRect*
0 Rectangle with rounded corners*
0 $1 Rounding radius*
0 $2 $3 $4 $5 $6 $7 $8 $9 X,Y pos of 4 corners*
0 Add a 4 corners polygon primitive as box body*
4,1,4,$2,$3,$4,$5,$6,$7,$8,$9,$2,$3,0*
0 Add four circle primitives for the rounded corners*
1,1,$1+$1,$2,$3*
1,1,$1+$1,$4,$5*
1,1,$1+$1,$6,$7*
1,1,$1+$1,$8,$9*
0 Add four rect primitives between the rounded corners*
20,1,$1+$1,$2,$3,$4,$5,0*
20,1,$1+$1,$4,$5,$6,$7,0*
20,1,$1+$1,$6,$7,$8,$9,0*
20,1,$1+$1,$8,$9,$2,$3,0*%
G04 Aperture macros list end*
%ADD10C,0.100000*%
%ADD11C,0.000000*%
%ADD12R,1.800000X1.800000*%
%ADD13C,1.800000*%
%ADD14C,1.600000*%
%ADD15C,1.500000*%
%ADD16R,1.100000X1.800000*%
%ADD17RoundRect,0.275000X-0.275000X-0.625000X0.275000X-0.625000X0.275000X0.625000X-0.275000X0.625000X0*%
G04 APERTURE END LIST*
D10*
X210700000Y-84000000D02*
X226600000Y-84000000D01*
X226600000Y-87400000D01*
X210700000Y-87400000D01*
X210700000Y-84000000D01*
X223800000Y-85800000D02*
G75*
G02*
X216010264Y-85800000I-3894868J0D01*
G01*
X216010264Y-85800000D02*
G75*
G02*
X223800000Y-85800000I3894868J0D01*
G01*
G36*
X264740000Y-101825069D02*
G01*
X266678311Y-101825069D01*
X266678311Y-101551762D01*
X264740000Y-101551762D01*
X264740000Y-101825069D01*
G37*
G36*
X264740000Y-102808757D02*
G01*
X266678311Y-102808757D01*
X266678311Y-102535450D01*
X264740000Y-102535450D01*
X264740000Y-102808757D01*
G37*
G36*
X265576287Y-102751360D02*
G01*
X265836161Y-102751360D01*
X265836161Y-101602320D01*
X265576287Y-101602320D01*
X265576287Y-102751360D01*
G37*
G36*
X264740000Y-100590055D02*
G01*
X266103729Y-100590055D01*
X266103729Y-100300383D01*
X264740000Y-100300383D01*
X264740000Y-100590055D01*
G37*
G36*
X264740000Y-101142044D02*
G01*
X264978381Y-101142044D01*
X264978381Y-100562700D01*
X264740000Y-100562700D01*
X264740000Y-101142044D01*
G37*
G36*
X264740000Y-100327739D02*
G01*
X264978381Y-100327739D01*
X264978381Y-99855006D01*
X264740000Y-99855006D01*
X264740000Y-100327739D01*
G37*
G36*
X265947536Y-101060101D02*
G01*
X266185917Y-101060101D01*
X266185917Y-100300383D01*
X265947536Y-100300383D01*
X265947536Y-101060101D01*
G37*
G36*
X266416482Y-100454867D02*
G01*
X266423133Y-100507957D01*
X266442670Y-100555007D01*
X266475833Y-100597627D01*
X266518456Y-100630783D01*
X266565544Y-100650324D01*
X266618715Y-100656978D01*
X266672751Y-100650272D01*
X266720010Y-100630686D01*
X266762208Y-100597627D01*
X266806277Y-100532167D01*
X266820949Y-100454867D01*
X266814301Y-100400790D01*
X266794902Y-100353528D01*
X266762208Y-100311374D01*
X266720054Y-100278680D01*
X266672792Y-100259281D01*
X266618715Y-100252634D01*
X266541311Y-100267311D01*
X266475833Y-100311374D01*
X266442774Y-100353572D01*
X266423188Y-100400831D01*
X266416482Y-100454867D01*
G37*
G36*
X264089337Y-99472644D02*
G01*
X264355073Y-99486322D01*
X264368750Y-99021772D01*
X264380316Y-98911310D01*
X264405462Y-98824026D01*
X264442178Y-98755422D01*
X264489895Y-98702058D01*
X264571998Y-98649276D01*
X264681458Y-98614460D01*
X264826339Y-98600942D01*
X265880369Y-98600942D01*
X266185917Y-98573586D01*
X266185917Y-98311270D01*
X264869082Y-98311270D01*
X264673510Y-98324408D01*
X264518171Y-98360354D01*
X264395456Y-98415316D01*
X264299263Y-98487613D01*
X264223134Y-98580608D01*
X264163728Y-98700769D01*
X264122491Y-98854322D01*
X264103014Y-99049127D01*
X264089337Y-99472644D01*
G37*
G36*
X264712644Y-99012247D02*
G01*
X264725484Y-99151803D01*
X264761607Y-99267220D01*
X264819307Y-99363308D01*
X264899490Y-99443335D01*
X264995256Y-99503321D01*
X265115195Y-99549211D01*
X265264480Y-99579210D01*
X265449281Y-99590125D01*
X265641463Y-99579156D01*
X265796434Y-99549054D01*
X265920624Y-99503130D01*
X266019466Y-99443335D01*
X266103002Y-99362857D01*
X266162783Y-99266579D01*
X266200054Y-99151314D01*
X266213272Y-99012247D01*
X266203921Y-98901552D01*
X266177865Y-98811340D01*
X266136824Y-98737595D01*
X266079500Y-98677386D01*
X266009596Y-98636712D01*
X265924089Y-98614619D01*
X265924089Y-98502634D01*
X265512051Y-98600942D01*
X265658952Y-98612361D01*
X265769296Y-98642969D01*
X265851304Y-98689113D01*
X265914565Y-98755441D01*
X265953251Y-98839822D01*
X265967076Y-98948011D01*
X265958331Y-99032788D01*
X265933528Y-99103439D01*
X265893307Y-99162948D01*
X265836284Y-99213136D01*
X265744356Y-99259905D01*
X265618633Y-99291406D01*
X265449281Y-99303262D01*
X265289462Y-99291481D01*
X265170368Y-99260072D01*
X265082794Y-99213136D01*
X265029119Y-99163385D01*
X264990932Y-99104063D01*
X264967228Y-99033264D01*
X264958841Y-98948011D01*
X264972665Y-98839822D01*
X265011352Y-98755441D01*
X265074612Y-98689113D01*
X265156620Y-98642969D01*
X265266965Y-98612361D01*
X265413866Y-98600942D01*
X265001828Y-98502634D01*
X265001828Y-98628297D01*
X264916063Y-98647767D01*
X264846190Y-98686028D01*
X264788970Y-98743824D01*
X264748023Y-98815380D01*
X264722002Y-98903479D01*
X264712644Y-99012247D01*
G37*
G36*
X264740000Y-96961584D02*
G01*
X265680701Y-96961584D01*
X265770084Y-96970114D01*
X265839240Y-96993482D01*
X265892704Y-97029972D01*
X265933092Y-97079956D01*
X265958121Y-97142458D01*
X265967076Y-97221214D01*
X265955177Y-97327211D01*
X265922357Y-97408842D01*
X265870003Y-97471923D01*
X265795524Y-97519431D01*
X265692817Y-97550961D01*
X265553084Y-97562787D01*
X265924089Y-97647418D01*
X265924089Y-97535432D01*
X266016650Y-97516925D01*
X266087572Y-97481193D01*
X266141587Y-97428820D01*
X266179108Y-97362050D01*
X266203992Y-97272273D01*
X266213272Y-97152826D01*
X266203666Y-97039435D01*
X266176595Y-96944614D01*
X266133478Y-96864876D01*
X266074054Y-96797697D01*
X266001532Y-96745050D01*
X265914036Y-96705892D01*
X265808556Y-96680873D01*
X265681311Y-96671912D01*
X264740000Y-96671912D01*
X264740000Y-96961584D01*
G37*
G36*
X264740000Y-97852337D02*
G01*
X266787732Y-97852337D01*
X266787732Y-97562787D01*
X264740000Y-97562787D01*
X264740000Y-97852337D01*
G37*
G36*
X264740000Y-95458879D02*
G01*
X265888918Y-95628262D01*
X265888918Y-95650122D01*
X266185917Y-95769068D01*
X266185917Y-95503942D01*
X264958841Y-95333217D01*
X264958841Y-95308548D01*
X266185917Y-95185572D01*
X266185917Y-94898709D01*
X264740000Y-95103628D01*
X264740000Y-95458879D01*
G37*
G36*
X264740000Y-96182937D02*
G01*
X266185917Y-96346946D01*
X266185917Y-96073639D01*
X264958841Y-95964340D01*
X264958841Y-95939794D01*
X266185917Y-95769068D01*
X266185917Y-95503942D01*
X265888918Y-95625575D01*
X265888918Y-95644626D01*
X264740000Y-95814131D01*
X264740000Y-96182937D01*
G37*
G36*
X264726322Y-93685676D02*
G01*
X265158754Y-93704727D01*
X265280387Y-93742951D01*
X265658841Y-93742951D01*
X265751155Y-93755222D01*
X265820924Y-93789251D01*
X265873775Y-93844801D01*
X265909668Y-93916151D01*
X265935351Y-94014461D01*
X265947658Y-94147418D01*
X265957306Y-94494487D01*
X266213272Y-94467131D01*
X266209120Y-94174773D01*
X266195178Y-93991715D01*
X266162489Y-93846111D01*
X266114363Y-93731156D01*
X266052561Y-93641224D01*
X265971436Y-93567219D01*
X265873460Y-93513293D01*
X265755156Y-93479236D01*
X265611702Y-93467079D01*
X265001828Y-93467079D01*
X264971786Y-93221127D01*
X264740000Y-93221127D01*
X264726322Y-93685676D01*
G37*
G36*
X264712644Y-94196632D02*
G01*
X264726377Y-94344004D01*
X264764035Y-94458628D01*
X264822798Y-94547732D01*
X264881834Y-94600907D01*
X264951770Y-94639389D01*
X265034794Y-94663503D01*
X265133963Y-94672051D01*
X265246180Y-94660634D01*
X265340521Y-94628152D01*
X265420717Y-94575386D01*
X265489092Y-94500593D01*
X265540022Y-94413237D01*
X265578791Y-94306131D01*
X265603955Y-94175347D01*
X265613046Y-94016259D01*
X265608862Y-93889918D01*
X265597292Y-93784717D01*
X265577048Y-93686292D01*
X265550153Y-93603611D01*
X265353171Y-93663817D01*
X265369514Y-93755032D01*
X265377107Y-93842725D01*
X265380526Y-94021755D01*
X265367619Y-94178365D01*
X265334752Y-94281927D01*
X265287587Y-94347614D01*
X265226752Y-94385502D01*
X265147641Y-94398743D01*
X265085990Y-94391042D01*
X265037048Y-94369378D01*
X264997798Y-94333897D01*
X264969912Y-94287791D01*
X264951811Y-94227816D01*
X264945163Y-94150104D01*
X264957744Y-94021956D01*
X264992058Y-93924057D01*
X265046930Y-93843162D01*
X265112226Y-93788136D01*
X265187515Y-93753947D01*
X265262801Y-93742951D01*
X265423025Y-93742951D01*
X265048600Y-93658321D01*
X265048600Y-93773115D01*
X265092564Y-93726587D01*
X265009888Y-93733559D01*
X264940275Y-93753259D01*
X264881294Y-93784717D01*
X264808109Y-93853525D01*
X264754654Y-93947993D01*
X264723793Y-94058969D01*
X264712644Y-94196632D01*
G37*
G36*
X264089337Y-93061392D02*
G01*
X264349211Y-93075069D01*
X264376444Y-92848290D01*
X264405685Y-92712102D01*
X264453991Y-92603070D01*
X264526566Y-92510290D01*
X264631556Y-92428803D01*
X264760055Y-92363891D01*
X264939668Y-92301796D01*
X266185917Y-91941050D01*
X266185917Y-91640509D01*
X264870792Y-92058531D01*
X264699741Y-92119316D01*
X264562542Y-92180776D01*
X264454235Y-92242323D01*
X264355177Y-92316478D01*
X264277018Y-92396506D01*
X264217320Y-92482780D01*
X264172300Y-92578037D01*
X264138395Y-92688158D01*
X264116570Y-92815439D01*
X264089337Y-93061392D01*
G37*
G36*
X264740000Y-92512212D02*
G01*
X266185917Y-93088747D01*
X266185917Y-92788084D01*
X264958841Y-92315474D01*
X264958841Y-92271755D01*
X264740000Y-92271755D01*
X264740000Y-92512212D01*
G37*
G36*
X264712644Y-88803018D02*
G01*
X264723096Y-88971580D01*
X264751344Y-89102448D01*
X264793830Y-89203006D01*
X264848688Y-89279291D01*
X264920915Y-89339664D01*
X265014065Y-89385316D01*
X265133103Y-89415152D01*
X265284417Y-89426081D01*
X265529392Y-89426081D01*
X265529392Y-89136409D01*
X265298461Y-89136409D01*
X265187546Y-89125549D01*
X265107290Y-89096593D01*
X265049944Y-89052390D01*
X265010013Y-88991248D01*
X264982903Y-88902284D01*
X264972519Y-88775785D01*
X264979968Y-88630949D01*
X264999874Y-88456071D01*
X264745495Y-88423220D01*
X264720826Y-88609699D01*
X264712644Y-88803018D01*
G37*
G36*
X265419972Y-89426081D02*
G01*
X266623600Y-89426081D01*
X266623600Y-89136409D01*
X265419972Y-89136409D01*
X265419972Y-89426081D01*
G37*
G36*
X265947536Y-89789515D02*
G01*
X266185917Y-89789515D01*
X266185917Y-88477930D01*
X265947536Y-88477930D01*
X265947536Y-89789515D01*
G37*
G36*
X265643795Y-86804006D02*
G01*
X265793072Y-86837286D01*
X265916183Y-86889069D01*
X266017512Y-86958129D01*
X266101696Y-87047626D01*
X266162211Y-87153072D01*
X266199938Y-87277659D01*
X266213272Y-87425976D01*
X266199970Y-87573623D01*
X266162290Y-87697958D01*
X266101778Y-87803486D01*
X266017512Y-87893335D01*
X265916150Y-87962616D01*
X265793028Y-88014548D01*
X265643761Y-88047917D01*
X265462958Y-88059909D01*
X265282927Y-88047945D01*
X265133949Y-88014619D01*
X265010744Y-87962690D01*
X264909016Y-87893335D01*
X264824457Y-87803447D01*
X264763762Y-87697904D01*
X264725980Y-87573582D01*
X264712644Y-87425976D01*
X264972519Y-87425976D01*
X264980873Y-87502894D01*
X265004801Y-87568126D01*
X265044091Y-87624224D01*
X265100502Y-87672662D01*
X265190218Y-87718117D01*
X265308478Y-87748208D01*
X265462958Y-87759368D01*
X265618375Y-87748170D01*
X265736753Y-87718047D01*
X265826025Y-87672662D01*
X265882133Y-87624262D01*
X265921242Y-87568180D01*
X265945074Y-87502935D01*
X265953398Y-87425976D01*
X265945075Y-87349083D01*
X265921245Y-87283901D01*
X265882137Y-87227878D01*
X265826025Y-87179535D01*
X265736743Y-87134083D01*
X265618365Y-87103920D01*
X265462958Y-87092707D01*
X265308488Y-87103882D01*
X265190227Y-87134013D01*
X265100502Y-87179535D01*
X265044087Y-87227916D01*
X265004798Y-87283955D01*
X264980872Y-87349124D01*
X264972519Y-87425976D01*
X264712644Y-87425976D01*
X264726012Y-87277700D01*
X264763842Y-87153126D01*
X264824540Y-87047665D01*
X264909016Y-86958129D01*
X265010712Y-86888995D01*
X265133905Y-86837215D01*
X265282893Y-86803978D01*
X265462958Y-86792044D01*
X265643795Y-86804006D01*
G37*
G36*
X264712644Y-84152756D02*
G01*
X264724208Y-84307900D01*
X264756225Y-84433681D01*
X264806020Y-84535598D01*
X264872863Y-84617897D01*
X264958030Y-84683232D01*
X265064666Y-84732402D01*
X265197489Y-84764260D01*
X265362452Y-84775819D01*
X266678311Y-84775819D01*
X266678311Y-84502512D01*
X265362819Y-84502512D01*
X265236191Y-84491552D01*
X265141266Y-84462070D01*
X265070704Y-84417149D01*
X265018591Y-84353533D01*
X264984991Y-84266199D01*
X264972519Y-84147260D01*
X264984303Y-84034568D01*
X265016506Y-83948843D01*
X265067093Y-83883687D01*
X265137787Y-83835455D01*
X265233748Y-83803880D01*
X265362819Y-83792131D01*
X266678311Y-83792131D01*
X266678311Y-83518824D01*
X265362452Y-83518824D01*
X265198938Y-83530557D01*
X265066892Y-83562954D01*
X264960465Y-83613110D01*
X264875066Y-83680024D01*
X264807107Y-83765026D01*
X264756622Y-83869248D01*
X264724282Y-83996744D01*
X264712644Y-84152756D01*
G37*
G36*
X264740000Y-82207362D02*
G01*
X265680701Y-82207362D01*
X265765372Y-82215825D01*
X265831202Y-82239109D01*
X265882445Y-82275750D01*
X265920828Y-82325468D01*
X265944791Y-82387964D01*
X265953398Y-82466992D01*
X265941693Y-82573805D01*
X265909510Y-82655718D01*
X265858443Y-82718659D01*
X265786236Y-82765786D01*
X265687192Y-82796919D01*
X265552962Y-82808565D01*
X265923967Y-82893196D01*
X265923967Y-82781210D01*
X266016610Y-82762699D01*
X266087569Y-82726964D01*
X266141587Y-82674598D01*
X266179108Y-82607828D01*
X266203992Y-82518051D01*
X266213272Y-82398604D01*
X266203666Y-82285213D01*
X266176595Y-82190392D01*
X266133478Y-82110654D01*
X266074054Y-82043475D01*
X266001532Y-81990828D01*
X265914036Y-81951670D01*
X265808556Y-81926651D01*
X265681311Y-81917690D01*
X264740000Y-81917690D01*
X264740000Y-82207362D01*
G37*
G36*
X264740000Y-83098115D02*
G01*
X266185917Y-83098115D01*
X266185917Y-82835799D01*
X265880369Y-82808565D01*
X264740000Y-82808565D01*
X264740000Y-83098115D01*
G37*
G36*
X264712644Y-80979309D02*
G01*
X264725484Y-81118865D01*
X264761607Y-81234282D01*
X264819307Y-81330370D01*
X264899490Y-81410397D01*
X264995256Y-81470383D01*
X265115195Y-81516273D01*
X265264480Y-81546272D01*
X265449281Y-81557187D01*
X265641463Y-81546218D01*
X265796434Y-81516116D01*
X265920624Y-81470192D01*
X266019466Y-81410397D01*
X266103002Y-81329919D01*
X266162783Y-81233641D01*
X266200054Y-81118376D01*
X266213272Y-80979309D01*
X266203980Y-80873291D01*
X266177991Y-80786421D01*
X266136824Y-80714916D01*
X266079740Y-80656730D01*
X266009851Y-80617106D01*
X265924089Y-80595359D01*
X265924089Y-80483374D01*
X265512051Y-80568004D01*
X265658952Y-80579423D01*
X265769296Y-80610032D01*
X265851304Y-80656175D01*
X265914565Y-80722503D01*
X265953251Y-80806884D01*
X265967076Y-80915073D01*
X265958331Y-80999850D01*
X265933528Y-81070501D01*
X265893307Y-81130010D01*
X265836284Y-81180198D01*
X265744356Y-81226968D01*
X265618633Y-81258469D01*
X265449281Y-81270324D01*
X265289462Y-81258543D01*
X265170368Y-81227134D01*
X265082794Y-81180198D01*
X265029119Y-81130447D01*
X264990932Y-81071125D01*
X264967228Y-81000326D01*
X264958841Y-80915073D01*
X264972665Y-80806884D01*
X265011352Y-80722503D01*
X265074612Y-80656175D01*
X265156620Y-80610032D01*
X265266965Y-80579423D01*
X265413866Y-80568004D01*
X265001828Y-80469696D01*
X265001828Y-80595359D01*
X264916063Y-80614829D01*
X264846190Y-80653090D01*
X264788970Y-80710886D01*
X264748023Y-80782442D01*
X264722002Y-80870541D01*
X264712644Y-80979309D01*
G37*
G36*
X264726322Y-80537962D02*
G01*
X265010010Y-80568004D01*
X266787732Y-80568004D01*
X266787732Y-80278332D01*
X264740000Y-80278332D01*
X264726322Y-80537962D01*
G37*
G36*
X264712644Y-79089846D02*
G01*
X264726403Y-79274904D01*
X264764875Y-79428341D01*
X264825313Y-79555787D01*
X264907062Y-79661618D01*
X265010034Y-79746650D01*
X265134309Y-79809199D01*
X265284255Y-79848918D01*
X265465645Y-79863119D01*
X265643911Y-79850931D01*
X265791909Y-79816909D01*
X265914811Y-79763723D01*
X266016779Y-79692393D01*
X266101004Y-79600647D01*
X266161793Y-79492160D01*
X266199811Y-79363572D01*
X266213272Y-79210136D01*
X266200988Y-79064981D01*
X266166378Y-78943658D01*
X266111270Y-78841694D01*
X266035341Y-78755844D01*
X265942791Y-78689203D01*
X265828908Y-78639166D01*
X265689220Y-78606899D01*
X265518157Y-78595254D01*
X265332044Y-78603558D01*
X265332044Y-79619975D01*
X265552840Y-79619975D01*
X265552840Y-78857571D01*
X265680627Y-78869258D01*
X265778889Y-78901122D01*
X265854235Y-78950505D01*
X265911624Y-79018762D01*
X265946783Y-79102783D01*
X265959260Y-79207327D01*
X265950801Y-79297595D01*
X265926791Y-79373698D01*
X265888074Y-79438437D01*
X265833841Y-79493702D01*
X265744688Y-79547630D01*
X265628976Y-79582597D01*
X265479323Y-79595429D01*
X265354401Y-79585524D01*
X265251732Y-79557882D01*
X265167162Y-79514418D01*
X265097571Y-79455355D01*
X265042719Y-79382071D01*
X265001988Y-79293480D01*
X264975977Y-79186476D01*
X264966657Y-79057117D01*
X264976915Y-78879431D01*
X265004881Y-78701866D01*
X264750990Y-78666329D01*
X264730361Y-78792479D01*
X264719483Y-78901413D01*
X264712644Y-79089846D01*
G37*
G36*
X265361964Y-77688258D02*
G01*
X265814912Y-77773011D01*
X265814912Y-77660903D01*
X265945091Y-77640817D01*
X266042952Y-77601995D01*
X266115711Y-77546836D01*
X266167991Y-77474636D01*
X266201197Y-77381705D01*
X266213272Y-77261933D01*
X266203978Y-77150286D01*
X266178402Y-77061830D01*
X266138663Y-76991824D01*
X266084923Y-76936845D01*
X266019602Y-76896653D01*
X265932508Y-76864962D01*
X265818157Y-76843655D01*
X265670076Y-76835729D01*
X265670076Y-77122592D01*
X265775414Y-77129118D01*
X265848513Y-77145892D01*
X265897588Y-77169731D01*
X265935211Y-77206224D01*
X265958564Y-77255573D01*
X265967076Y-77322138D01*
X265956821Y-77410175D01*
X265927565Y-77483429D01*
X265879414Y-77545265D01*
X265809661Y-77597400D01*
X265700592Y-77644590D01*
X265554612Y-77676366D01*
X265361964Y-77688258D01*
G37*
G36*
X264740000Y-78300331D02*
G01*
X264978381Y-78300331D01*
X264978381Y-77333007D01*
X264740000Y-77333007D01*
X264740000Y-78300331D01*
G37*
G36*
X264740000Y-77977930D02*
G01*
X266185917Y-77977930D01*
X266185917Y-77742847D01*
X265771193Y-77688258D01*
X264740000Y-77688258D01*
X264740000Y-77977930D01*
G37*
G36*
X265947536Y-78245621D02*
G01*
X266185917Y-78245621D01*
X266185917Y-77762020D01*
X265947536Y-77734665D01*
X265947536Y-78245621D01*
G37*
G36*
X264712644Y-75811130D02*
G01*
X264726403Y-75996188D01*
X264764875Y-76149625D01*
X264825313Y-76277071D01*
X264907062Y-76382903D01*
X265010034Y-76467934D01*
X265134309Y-76530483D01*
X265284255Y-76570202D01*
X265465645Y-76584403D01*
X265642576Y-76571019D01*
X265790131Y-76533483D01*
X265913524Y-76474286D01*
X266016779Y-76393893D01*
X266099789Y-76292975D01*
X266160782Y-76171600D01*
X266199460Y-76025603D01*
X266213272Y-75849476D01*
X266203852Y-75710080D01*
X266177151Y-75590208D01*
X266134748Y-75486775D01*
X266074091Y-75394274D01*
X266000625Y-75323361D01*
X265913098Y-75271475D01*
X265745303Y-75494225D01*
X265833907Y-75564799D01*
X265898932Y-75651395D01*
X265939683Y-75751065D01*
X265953398Y-75860345D01*
X265944894Y-75961651D01*
X265920911Y-76046588D01*
X265882699Y-76118202D01*
X265830055Y-76178715D01*
X265765712Y-76226114D01*
X265687771Y-76261388D01*
X265593470Y-76283951D01*
X265479323Y-76292044D01*
X265356242Y-76282602D01*
X265254928Y-76256259D01*
X265171389Y-76214915D01*
X265102578Y-76158932D01*
X265047929Y-76088876D01*
X265007501Y-76004231D01*
X264981741Y-75902019D01*
X264972519Y-75778401D01*
X264982044Y-75576168D01*
X265008056Y-75379431D01*
X264753677Y-75346702D01*
X264733218Y-75459963D01*
X264720826Y-75578244D01*
X264712644Y-75811130D01*
G37*
G36*
X264740000Y-74360327D02*
G01*
X266103729Y-74360327D01*
X266103729Y-74070655D01*
X264740000Y-74070655D01*
X264740000Y-74360327D01*
G37*
G36*
X264740000Y-74912316D02*
G01*
X264978381Y-74912316D01*
X264978381Y-74332972D01*
X264740000Y-74332972D01*
X264740000Y-74912316D01*
G37*
G36*
X264740000Y-74098011D02*
G01*
X264978381Y-74098011D01*
X264978381Y-73625279D01*
X264740000Y-73625279D01*
X264740000Y-74098011D01*
G37*
G36*
X265947536Y-74830373D02*
G01*
X266185917Y-74830373D01*
X266185917Y-74070655D01*
X265947536Y-74070655D01*
X265947536Y-74830373D01*
G37*
G36*
X266416482Y-74225139D02*
G01*
X266423133Y-74278230D01*
X266442670Y-74325279D01*
X266475833Y-74367899D01*
X266518456Y-74401056D01*
X266565544Y-74420596D01*
X266618715Y-74427250D01*
X266672751Y-74420545D01*
X266720010Y-74400958D01*
X266762208Y-74367899D01*
X266806277Y-74302439D01*
X266820949Y-74225139D01*
X266814301Y-74171062D01*
X266794902Y-74123801D01*
X266762208Y-74081646D01*
X266720054Y-74048953D01*
X266672792Y-74029553D01*
X266618715Y-74022906D01*
X266541311Y-74037583D01*
X266475833Y-74081646D01*
X266442774Y-74123844D01*
X266423188Y-74171103D01*
X266416482Y-74225139D01*
G37*
G36*
X264712644Y-72409438D02*
G01*
X264723096Y-72578000D01*
X264751344Y-72708868D01*
X264793830Y-72809426D01*
X264848688Y-72885711D01*
X264920915Y-72946084D01*
X265014065Y-72991736D01*
X265133103Y-73021572D01*
X265284417Y-73032501D01*
X265529392Y-73032501D01*
X265529392Y-72742829D01*
X265298461Y-72742829D01*
X265187546Y-72731969D01*
X265107290Y-72703013D01*
X265049944Y-72658810D01*
X265010013Y-72597668D01*
X264982903Y-72508704D01*
X264972519Y-72382205D01*
X264979968Y-72237369D01*
X264999874Y-72062491D01*
X264745495Y-72029640D01*
X264720826Y-72216120D01*
X264712644Y-72409438D01*
G37*
G36*
X265419972Y-73032501D02*
G01*
X266623600Y-73032501D01*
X266623600Y-72742829D01*
X265419972Y-72742829D01*
X265419972Y-73032501D01*
G37*
G36*
X265947536Y-73395935D02*
G01*
X266185917Y-73395935D01*
X266185917Y-72084351D01*
X265947536Y-72084351D01*
X265947536Y-73395935D01*
G37*
G36*
X264089337Y-71749738D02*
G01*
X264349211Y-71763415D01*
X264376444Y-71536636D01*
X264405685Y-71400448D01*
X264453991Y-71291416D01*
X264526566Y-71198636D01*
X264631556Y-71117149D01*
X264760055Y-71052237D01*
X264939668Y-70990143D01*
X266185917Y-70629396D01*
X266185917Y-70328855D01*
X264870792Y-70746877D01*
X264699741Y-70807663D01*
X264562542Y-70869122D01*
X264454235Y-70930669D01*
X264355177Y-71004824D01*
X264277018Y-71084852D01*
X264217320Y-71171127D01*
X264172300Y-71266383D01*
X264138395Y-71376504D01*
X264116570Y-71503785D01*
X264089337Y-71749738D01*
G37*
G36*
X264740000Y-71200558D02*
G01*
X266185917Y-71777093D01*
X266185917Y-71476430D01*
X264958841Y-71003820D01*
X264958841Y-70960101D01*
X264740000Y-70960101D01*
X264740000Y-71200558D01*
G37*
G36*
X171740000Y-101825069D02*
G01*
X173678311Y-101825069D01*
X173678311Y-101551762D01*
X171740000Y-101551762D01*
X171740000Y-101825069D01*
G37*
G36*
X171740000Y-102808757D02*
G01*
X173678311Y-102808757D01*
X173678311Y-102535450D01*
X171740000Y-102535450D01*
X171740000Y-102808757D01*
G37*
G36*
X172576287Y-102751360D02*
G01*
X172836161Y-102751360D01*
X172836161Y-101602320D01*
X172576287Y-101602320D01*
X172576287Y-102751360D01*
G37*
G36*
X171726322Y-100243108D02*
G01*
X172158754Y-100262159D01*
X172280387Y-100300383D01*
X172658841Y-100300383D01*
X172751155Y-100312654D01*
X172820924Y-100346683D01*
X172873775Y-100402233D01*
X172909668Y-100473583D01*
X172935351Y-100571893D01*
X172947658Y-100704849D01*
X172957306Y-101051919D01*
X173213272Y-101024563D01*
X173209120Y-100732205D01*
X173195178Y-100549147D01*
X173162489Y-100403543D01*
X173114363Y-100288588D01*
X173052561Y-100198656D01*
X172971436Y-100124651D01*
X172873460Y-100070725D01*
X172755156Y-100036668D01*
X172611702Y-100024511D01*
X172001828Y-100024511D01*
X171971786Y-99778558D01*
X171740000Y-99778558D01*
X171726322Y-100243108D01*
G37*
G36*
X171712644Y-100754064D02*
G01*
X171726377Y-100901436D01*
X171764035Y-101016060D01*
X171822798Y-101105163D01*
X171881834Y-101158339D01*
X171951770Y-101196821D01*
X172034794Y-101220935D01*
X172133963Y-101229483D01*
X172246180Y-101218066D01*
X172340521Y-101185584D01*
X172420717Y-101132818D01*
X172489092Y-101058025D01*
X172540022Y-100970669D01*
X172578791Y-100863563D01*
X172603955Y-100732779D01*
X172613046Y-100573691D01*
X172608862Y-100447350D01*
X172597292Y-100342149D01*
X172577048Y-100243723D01*
X172550153Y-100161043D01*
X172353171Y-100221249D01*
X172369514Y-100312464D01*
X172377107Y-100400157D01*
X172380526Y-100579187D01*
X172367619Y-100735797D01*
X172334752Y-100839359D01*
X172287587Y-100905046D01*
X172226752Y-100942934D01*
X172147641Y-100956175D01*
X172085990Y-100948474D01*
X172037048Y-100926810D01*
X171997798Y-100891329D01*
X171969912Y-100845223D01*
X171951811Y-100785248D01*
X171945163Y-100707536D01*
X171957744Y-100579388D01*
X171992058Y-100481489D01*
X172046930Y-100400594D01*
X172112226Y-100345568D01*
X172187515Y-100311379D01*
X172262801Y-100300383D01*
X172423025Y-100300383D01*
X172048600Y-100215753D01*
X172048600Y-100330547D01*
X172092564Y-100284019D01*
X172009888Y-100290991D01*
X171940275Y-100310691D01*
X171881294Y-100342149D01*
X171808109Y-100410957D01*
X171754654Y-100505425D01*
X171723793Y-100616401D01*
X171712644Y-100754064D01*
G37*
G36*
X171712644Y-98762142D02*
G01*
X171726403Y-98947200D01*
X171764875Y-99100637D01*
X171825313Y-99228083D01*
X171907062Y-99333914D01*
X172010034Y-99418946D01*
X172134309Y-99481495D01*
X172284255Y-99521214D01*
X172465645Y-99535415D01*
X172642576Y-99522031D01*
X172790131Y-99484495D01*
X172913524Y-99425298D01*
X173016779Y-99344905D01*
X173099789Y-99243986D01*
X173160782Y-99122612D01*
X173199460Y-98976615D01*
X173213272Y-98800488D01*
X173203852Y-98661092D01*
X173177151Y-98541220D01*
X173134748Y-98437787D01*
X173074091Y-98345285D01*
X173000625Y-98274373D01*
X172913098Y-98222487D01*
X172745303Y-98445237D01*
X172833907Y-98515811D01*
X172898932Y-98602407D01*
X172939683Y-98702077D01*
X172953398Y-98811357D01*
X172944894Y-98912663D01*
X172920911Y-98997600D01*
X172882699Y-99069214D01*
X172830055Y-99129727D01*
X172765712Y-99177125D01*
X172687771Y-99212399D01*
X172593470Y-99234963D01*
X172479323Y-99243056D01*
X172356242Y-99233614D01*
X172254928Y-99207271D01*
X172171389Y-99165927D01*
X172102578Y-99109944D01*
X172047929Y-99039888D01*
X172007501Y-98955242D01*
X171981741Y-98853031D01*
X171972519Y-98729413D01*
X171982044Y-98527180D01*
X172008056Y-98330443D01*
X171753677Y-98297714D01*
X171733218Y-98410975D01*
X171720826Y-98529256D01*
X171712644Y-98762142D01*
G37*
G36*
X172287103Y-97658408D02*
G01*
X172546978Y-97658408D01*
X172546978Y-97494399D01*
X172554672Y-97375392D01*
X172575996Y-97277834D01*
X172609016Y-97198011D01*
X172657756Y-97127734D01*
X172724333Y-97067115D01*
X172811737Y-97015683D01*
X172907605Y-96978005D01*
X173030581Y-96944895D01*
X173185917Y-96917864D01*
X173185917Y-96617323D01*
X172956816Y-96659130D01*
X172772565Y-96717617D01*
X172625839Y-96790036D01*
X172510464Y-96874877D01*
X172431367Y-96959291D01*
X172369799Y-97054752D01*
X172324900Y-97162819D01*
X172296899Y-97285699D01*
X172287103Y-97426133D01*
X172287103Y-97658408D01*
G37*
G36*
X171740000Y-97863328D02*
G01*
X173787732Y-97863328D01*
X173787732Y-97573656D01*
X171740000Y-97573656D01*
X171740000Y-97863328D01*
G37*
G36*
X171740000Y-96882327D02*
G01*
X172443053Y-97294975D01*
X172555160Y-97021667D01*
X171740000Y-96524389D01*
X171740000Y-96882327D01*
G37*
G36*
X171712644Y-95483426D02*
G01*
X171726403Y-95668484D01*
X171764875Y-95821921D01*
X171825313Y-95949367D01*
X171907062Y-96055198D01*
X172010034Y-96140230D01*
X172134309Y-96202779D01*
X172284255Y-96242498D01*
X172465645Y-96256699D01*
X172642576Y-96243315D01*
X172790131Y-96205779D01*
X172913524Y-96146582D01*
X173016779Y-96066189D01*
X173099789Y-95965271D01*
X173160782Y-95843896D01*
X173199460Y-95697899D01*
X173213272Y-95521772D01*
X173203852Y-95382376D01*
X173177151Y-95262504D01*
X173134748Y-95159071D01*
X173074091Y-95066569D01*
X173000625Y-94995657D01*
X172913098Y-94943771D01*
X172745303Y-95166521D01*
X172833907Y-95237095D01*
X172898932Y-95323691D01*
X172939683Y-95423361D01*
X172953398Y-95532641D01*
X172944894Y-95633947D01*
X172920911Y-95718884D01*
X172882699Y-95790498D01*
X172830055Y-95851011D01*
X172765712Y-95898409D01*
X172687771Y-95933684D01*
X172593470Y-95956247D01*
X172479323Y-95964340D01*
X172356242Y-95954898D01*
X172254928Y-95928555D01*
X172171389Y-95887211D01*
X172102578Y-95831228D01*
X172047929Y-95761172D01*
X172007501Y-95676526D01*
X171981741Y-95574315D01*
X171972519Y-95450697D01*
X171982044Y-95248464D01*
X172008056Y-95051727D01*
X171753677Y-95018998D01*
X171733218Y-95132259D01*
X171720826Y-95250540D01*
X171712644Y-95483426D01*
G37*
G36*
X171712644Y-93767620D02*
G01*
X171722658Y-93893539D01*
X171750092Y-93992683D01*
X171792426Y-94070507D01*
X171849176Y-94131053D01*
X171919080Y-94175864D01*
X172011336Y-94210922D01*
X172131456Y-94234355D01*
X172286004Y-94243039D01*
X173787732Y-94243039D01*
X173787732Y-93953367D01*
X172300048Y-93953367D01*
X172190828Y-93947280D01*
X172113080Y-93931507D01*
X172049994Y-93898982D01*
X172006591Y-93846144D01*
X171982319Y-93774177D01*
X171972519Y-93658321D01*
X171983896Y-93538329D01*
X172024420Y-93368649D01*
X171770041Y-93335921D01*
X171726322Y-93548412D01*
X171716186Y-93652143D01*
X171712644Y-93767620D01*
G37*
G36*
X173549351Y-94669364D02*
G01*
X173787732Y-94669364D01*
X173787732Y-94218492D01*
X173549351Y-94218492D01*
X173549351Y-94669364D01*
G37*
G36*
X171712644Y-92486200D02*
G01*
X171722037Y-92599109D01*
X171748482Y-92693460D01*
X171790526Y-92772706D01*
X171848321Y-92839375D01*
X171919277Y-92891829D01*
X172004660Y-92930739D01*
X172107363Y-92955551D01*
X172231050Y-92964427D01*
X173185917Y-92964427D01*
X173185917Y-92674755D01*
X172231538Y-92674755D01*
X172151793Y-92666092D01*
X172089236Y-92642056D01*
X172039930Y-92603681D01*
X172003734Y-92552415D01*
X171980816Y-92487265D01*
X171972519Y-92404256D01*
X171984699Y-92303334D01*
X172018493Y-92225479D01*
X172073025Y-92165143D01*
X172145270Y-92124191D01*
X172253464Y-92095640D01*
X172410446Y-92084542D01*
X172021367Y-92010781D01*
X172021367Y-92106402D01*
X171926901Y-92137777D01*
X171851714Y-92182494D01*
X171792512Y-92240369D01*
X171748804Y-92310547D01*
X171722006Y-92391561D01*
X171712644Y-92486200D01*
G37*
G36*
X171726322Y-92059874D02*
G01*
X172074124Y-92084542D01*
X172328869Y-92084542D01*
X172328869Y-91794870D01*
X172001828Y-91794870D01*
X171971786Y-91595446D01*
X171740000Y-91595446D01*
X171726322Y-92059874D01*
G37*
G36*
X172151915Y-92084542D02*
G01*
X173185917Y-92084542D01*
X173185917Y-91794870D01*
X172233492Y-91794870D01*
X172151915Y-92084542D01*
G37*
G36*
X171712644Y-90913764D02*
G01*
X171720216Y-91107815D01*
X171740000Y-91301744D01*
X172005247Y-91189759D01*
X171978361Y-91114475D01*
X171964947Y-91029902D01*
X171958841Y-90856367D01*
X171969675Y-90727292D01*
X172000185Y-90619445D01*
X172048724Y-90528856D01*
X172115523Y-90452634D01*
X172197279Y-90392857D01*
X172295922Y-90348422D01*
X172414846Y-90320040D01*
X172558335Y-90309874D01*
X172686550Y-90320858D01*
X172785221Y-90350729D01*
X172860830Y-90396702D01*
X172918930Y-90461193D01*
X172954443Y-90541718D01*
X172967076Y-90643265D01*
X172954703Y-90759781D01*
X172920826Y-90848647D01*
X172867435Y-90916432D01*
X172792537Y-90966796D01*
X172690520Y-90999867D01*
X172552962Y-91012194D01*
X172924089Y-91096824D01*
X172924089Y-90984839D01*
X173014337Y-90968695D01*
X173084013Y-90936723D01*
X173137619Y-90889805D01*
X173177529Y-90826115D01*
X173203619Y-90741415D01*
X173213272Y-90629588D01*
X173201435Y-90486093D01*
X173168135Y-90366325D01*
X173115255Y-90265882D01*
X173042669Y-90181524D01*
X172953525Y-90115121D01*
X172845788Y-90065799D01*
X172715690Y-90034298D01*
X172558457Y-90023011D01*
X172395968Y-90033482D01*
X172255295Y-90063225D01*
X172133154Y-90110491D01*
X172026828Y-90174609D01*
X171934295Y-90256018D01*
X171857773Y-90351889D01*
X171796833Y-90462998D01*
X171751502Y-90591641D01*
X171722791Y-90740748D01*
X171712644Y-90913764D01*
G37*
G36*
X171740000Y-91301744D02*
G01*
X173787732Y-91301744D01*
X173787732Y-91012194D01*
X171764668Y-91012194D01*
X171740000Y-91301744D01*
G37*
G36*
X171712644Y-87493021D02*
G01*
X171719534Y-87655334D01*
X171739389Y-87802477D01*
X171773165Y-87942753D01*
X171819501Y-88069556D01*
X172095861Y-88034019D01*
X172038522Y-87883909D01*
X171998164Y-87743736D01*
X171972898Y-87604166D01*
X171964703Y-87471161D01*
X171973591Y-87344567D01*
X171996987Y-87252564D01*
X172031381Y-87186985D01*
X172082208Y-87136282D01*
X172148142Y-87105212D01*
X172234103Y-87094050D01*
X172314809Y-87105092D01*
X172382170Y-87136981D01*
X172439525Y-87190863D01*
X172487993Y-87271615D01*
X172640889Y-87607693D01*
X172708425Y-87735037D01*
X172780859Y-87835031D01*
X172857899Y-87911775D01*
X172947660Y-87969762D01*
X173051563Y-88005255D01*
X173173339Y-88017655D01*
X173298864Y-88007087D01*
X173403836Y-87977311D01*
X173492098Y-87929911D01*
X173566448Y-87864637D01*
X173624706Y-87784812D01*
X173668043Y-87688385D01*
X173695741Y-87572010D01*
X173705666Y-87431472D01*
X173698846Y-87302136D01*
X173679346Y-87187561D01*
X173648269Y-87085868D01*
X173603479Y-86989474D01*
X173541783Y-86893121D01*
X173461301Y-86796196D01*
X173267494Y-86987438D01*
X173354781Y-87108415D01*
X173409399Y-87212264D01*
X173442554Y-87318930D01*
X173453607Y-87430129D01*
X173445192Y-87521628D01*
X173422130Y-87592802D01*
X173386196Y-87648115D01*
X173336373Y-87689686D01*
X173271504Y-87715810D01*
X173186894Y-87725296D01*
X173099564Y-87712040D01*
X173033265Y-87674738D01*
X172979457Y-87615429D01*
X172927508Y-87525750D01*
X172793785Y-87241573D01*
X172719079Y-87101897D01*
X172642997Y-86994381D01*
X172565785Y-86913799D01*
X172475456Y-86852668D01*
X172368238Y-86814978D01*
X172239598Y-86801692D01*
X172110060Y-86813569D01*
X172003901Y-86846850D01*
X171916418Y-86899795D01*
X171844413Y-86973150D01*
X171791144Y-87060602D01*
X171749896Y-87172544D01*
X171722642Y-87314505D01*
X171712644Y-87493021D01*
G37*
G36*
X172643795Y-85164648D02*
G01*
X172793072Y-85197928D01*
X172916183Y-85249711D01*
X173017512Y-85318771D01*
X173101696Y-85408268D01*
X173162211Y-85513714D01*
X173199938Y-85638301D01*
X173213272Y-85786618D01*
X173199970Y-85934265D01*
X173162290Y-86058600D01*
X173101778Y-86164128D01*
X173017512Y-86253977D01*
X172916150Y-86323258D01*
X172793028Y-86375190D01*
X172643761Y-86408559D01*
X172462958Y-86420551D01*
X172282927Y-86408587D01*
X172133949Y-86375261D01*
X172010744Y-86323333D01*
X171909016Y-86253977D01*
X171824457Y-86164089D01*
X171763762Y-86058546D01*
X171725980Y-85934224D01*
X171712644Y-85786618D01*
X171972519Y-85786618D01*
X171980873Y-85863536D01*
X172004801Y-85928768D01*
X172044091Y-85984866D01*
X172100502Y-86033304D01*
X172190218Y-86078759D01*
X172308478Y-86108850D01*
X172462958Y-86120010D01*
X172618375Y-86108812D01*
X172736753Y-86078689D01*
X172826025Y-86033304D01*
X172882133Y-85984904D01*
X172921242Y-85928822D01*
X172945074Y-85863577D01*
X172953398Y-85786618D01*
X172945075Y-85709725D01*
X172921245Y-85644543D01*
X172882137Y-85588520D01*
X172826025Y-85540177D01*
X172736743Y-85494725D01*
X172618365Y-85464562D01*
X172462958Y-85453349D01*
X172308488Y-85464524D01*
X172190227Y-85494655D01*
X172100502Y-85540177D01*
X172044087Y-85588558D01*
X172004798Y-85644597D01*
X171980872Y-85709766D01*
X171972519Y-85786618D01*
X171712644Y-85786618D01*
X171726012Y-85638342D01*
X171763842Y-85513768D01*
X171824540Y-85408307D01*
X171909016Y-85318771D01*
X172010712Y-85249637D01*
X172133905Y-85197857D01*
X172282893Y-85164620D01*
X172462958Y-85152686D01*
X172643795Y-85164648D01*
G37*
G36*
X171712644Y-83931472D02*
G01*
X171722658Y-84057391D01*
X171750092Y-84156535D01*
X171792426Y-84234359D01*
X171849176Y-84294905D01*
X171919080Y-84339716D01*
X172011336Y-84374774D01*
X172131456Y-84398207D01*
X172286004Y-84406891D01*
X173787732Y-84406891D01*
X173787732Y-84117219D01*
X172300048Y-84117219D01*
X172190828Y-84111132D01*
X172113080Y-84095359D01*
X172049994Y-84062834D01*
X172006591Y-84009996D01*
X171982319Y-83938029D01*
X171972519Y-83822173D01*
X171983896Y-83702181D01*
X172024420Y-83532501D01*
X171770041Y-83499773D01*
X171726322Y-83712264D01*
X171716186Y-83815995D01*
X171712644Y-83931472D01*
G37*
G36*
X173549351Y-84833217D02*
G01*
X173787732Y-84833217D01*
X173787732Y-84382344D01*
X173549351Y-84382344D01*
X173549351Y-84833217D01*
G37*
G36*
X171712644Y-82618667D02*
G01*
X171725484Y-82758223D01*
X171761607Y-82873640D01*
X171819307Y-82969728D01*
X171899490Y-83049755D01*
X171995256Y-83109741D01*
X172115195Y-83155631D01*
X172264480Y-83185630D01*
X172449281Y-83196545D01*
X172641463Y-83185576D01*
X172796434Y-83155474D01*
X172920624Y-83109550D01*
X173019466Y-83049755D01*
X173103002Y-82969277D01*
X173162783Y-82872999D01*
X173200054Y-82757734D01*
X173213272Y-82618667D01*
X173203980Y-82512649D01*
X173177991Y-82425779D01*
X173136824Y-82354274D01*
X173079740Y-82296088D01*
X173009851Y-82256464D01*
X172924089Y-82234717D01*
X172924089Y-82122732D01*
X172512051Y-82207362D01*
X172658952Y-82218781D01*
X172769296Y-82249390D01*
X172851304Y-82295533D01*
X172914565Y-82361861D01*
X172953251Y-82446242D01*
X172967076Y-82554431D01*
X172958331Y-82639208D01*
X172933528Y-82709859D01*
X172893307Y-82769368D01*
X172836284Y-82819556D01*
X172744356Y-82866326D01*
X172618633Y-82897827D01*
X172449281Y-82909682D01*
X172289462Y-82897901D01*
X172170368Y-82866492D01*
X172082794Y-82819556D01*
X172029119Y-82769805D01*
X171990932Y-82710483D01*
X171967228Y-82639684D01*
X171958841Y-82554431D01*
X171972665Y-82446242D01*
X172011352Y-82361861D01*
X172074612Y-82295533D01*
X172156620Y-82249390D01*
X172266965Y-82218781D01*
X172413866Y-82207362D01*
X172001828Y-82109054D01*
X172001828Y-82234717D01*
X171916063Y-82254187D01*
X171846190Y-82292448D01*
X171788970Y-82350244D01*
X171748023Y-82421800D01*
X171722002Y-82509899D01*
X171712644Y-82618667D01*
G37*
G36*
X171726322Y-82177320D02*
G01*
X172010010Y-82207362D01*
X173787732Y-82207362D01*
X173787732Y-81917690D01*
X171740000Y-81917690D01*
X171726322Y-82177320D01*
G37*
G36*
X171712644Y-80729204D02*
G01*
X171726403Y-80914262D01*
X171764875Y-81067699D01*
X171825313Y-81195145D01*
X171907062Y-81300976D01*
X172010034Y-81386008D01*
X172134309Y-81448557D01*
X172284255Y-81488276D01*
X172465645Y-81502477D01*
X172643911Y-81490289D01*
X172791909Y-81456267D01*
X172914811Y-81403081D01*
X173016779Y-81331751D01*
X173101004Y-81240005D01*
X173161793Y-81131518D01*
X173199811Y-81002930D01*
X173213272Y-80849494D01*
X173200988Y-80704339D01*
X173166378Y-80583016D01*
X173111270Y-80481052D01*
X173035341Y-80395202D01*
X172942791Y-80328560D01*
X172828908Y-80278524D01*
X172689220Y-80246257D01*
X172518157Y-80234612D01*
X172332044Y-80242916D01*
X172332044Y-81259333D01*
X172552840Y-81259333D01*
X172552840Y-80496929D01*
X172680627Y-80508616D01*
X172778889Y-80540480D01*
X172854235Y-80589863D01*
X172911624Y-80658120D01*
X172946783Y-80742141D01*
X172959260Y-80846685D01*
X172950801Y-80936953D01*
X172926791Y-81013056D01*
X172888074Y-81077795D01*
X172833841Y-81133060D01*
X172744688Y-81186988D01*
X172628976Y-81221955D01*
X172479323Y-81234787D01*
X172354401Y-81224882D01*
X172251732Y-81197240D01*
X172167162Y-81153776D01*
X172097571Y-81094713D01*
X172042719Y-81021429D01*
X172001988Y-80932838D01*
X171975977Y-80825834D01*
X171966657Y-80696475D01*
X171976915Y-80518789D01*
X172004881Y-80341224D01*
X171750990Y-80305687D01*
X171730361Y-80431837D01*
X171719483Y-80540771D01*
X171712644Y-80729204D01*
G37*
G36*
X172361964Y-79327616D02*
G01*
X172814912Y-79412369D01*
X172814912Y-79300261D01*
X172945091Y-79280175D01*
X173042952Y-79241353D01*
X173115711Y-79186194D01*
X173167991Y-79113994D01*
X173201197Y-79021063D01*
X173213272Y-78901290D01*
X173203978Y-78789644D01*
X173178402Y-78701188D01*
X173138663Y-78631182D01*
X173084923Y-78576203D01*
X173019602Y-78536011D01*
X172932508Y-78504320D01*
X172818157Y-78483013D01*
X172670076Y-78475087D01*
X172670076Y-78761950D01*
X172775414Y-78768476D01*
X172848513Y-78785250D01*
X172897588Y-78809089D01*
X172935211Y-78845582D01*
X172958564Y-78894931D01*
X172967076Y-78961496D01*
X172956821Y-79049533D01*
X172927565Y-79122787D01*
X172879414Y-79184623D01*
X172809661Y-79236758D01*
X172700592Y-79283948D01*
X172554612Y-79315724D01*
X172361964Y-79327616D01*
G37*
G36*
X171740000Y-79939689D02*
G01*
X171978381Y-79939689D01*
X171978381Y-78972365D01*
X171740000Y-78972365D01*
X171740000Y-79939689D01*
G37*
G36*
X171740000Y-79617288D02*
G01*
X173185917Y-79617288D01*
X173185917Y-79382205D01*
X172771193Y-79327616D01*
X171740000Y-79327616D01*
X171740000Y-79617288D01*
G37*
G36*
X172947536Y-79884979D02*
G01*
X173185917Y-79884979D01*
X173185917Y-79401378D01*
X172947536Y-79374023D01*
X172947536Y-79884979D01*
G37*
G36*
X171740000Y-76562543D02*
G01*
X172046769Y-76562543D01*
X172182162Y-76336734D01*
X172313517Y-76153087D01*
X172440950Y-76006166D01*
X172564808Y-75891120D01*
X172707040Y-75790209D01*
X172845910Y-75721801D01*
X172983175Y-75682140D01*
X173120949Y-75669103D01*
X173228851Y-75679491D01*
X173309899Y-75707605D01*
X173370443Y-75751046D01*
X173414520Y-75810957D01*
X173443049Y-75891656D01*
X173453607Y-75999685D01*
X173438440Y-76109704D01*
X173389616Y-76230617D01*
X173315249Y-76342223D01*
X173219745Y-76436880D01*
X173406713Y-76625436D01*
X173489131Y-76555610D01*
X173561400Y-76467271D01*
X173623722Y-76357745D01*
X173669368Y-76239825D01*
X173696559Y-76119056D01*
X173705666Y-75994190D01*
X173694987Y-75838941D01*
X173665597Y-75714148D01*
X173620330Y-75614175D01*
X173560341Y-75534525D01*
X173483450Y-75471009D01*
X173387688Y-75423648D01*
X173268928Y-75393150D01*
X173121803Y-75382117D01*
X172978112Y-75393434D01*
X172836977Y-75427490D01*
X172696812Y-75485253D01*
X172556259Y-75568719D01*
X172430343Y-75666969D01*
X172301903Y-75791849D01*
X172170501Y-75946945D01*
X172035900Y-76136339D01*
X171740000Y-76136339D01*
X171740000Y-76562543D01*
G37*
G36*
X171740000Y-76480600D02*
G01*
X171994012Y-76480600D01*
X171994012Y-75300174D01*
X171740000Y-75300174D01*
X171740000Y-76480600D01*
G37*
G36*
X172755690Y-74112845D02*
G01*
X172804591Y-74131653D01*
X172845076Y-74162247D01*
X172875681Y-74202727D01*
X172894484Y-74251553D01*
X172901130Y-74311113D01*
X172894530Y-74369872D01*
X172875766Y-74418587D01*
X172845076Y-74459490D01*
X172804545Y-74490442D01*
X172755645Y-74509441D01*
X172695966Y-74516154D01*
X172637250Y-74509493D01*
X172588537Y-74490539D01*
X172547588Y-74459490D01*
X172516468Y-74418533D01*
X172497476Y-74369819D01*
X172490802Y-74311113D01*
X172497522Y-74251607D01*
X172516553Y-74202782D01*
X172547588Y-74162247D01*
X172588492Y-74131557D01*
X172637206Y-74112793D01*
X172695966Y-74106193D01*
X172755690Y-74112845D01*
G37*
G36*
X172946046Y-73661615D02*
G01*
X173147594Y-73693526D01*
X173308097Y-73741765D01*
X173434560Y-73803522D01*
X173532831Y-73877274D01*
X173607340Y-73962920D01*
X173660804Y-74061813D01*
X173693996Y-74176626D01*
X173705666Y-74311113D01*
X173693995Y-74445630D01*
X173660800Y-74560469D01*
X173607332Y-74659381D01*
X173532819Y-74745043D01*
X173434545Y-74818806D01*
X173308081Y-74880571D01*
X173147579Y-74928816D01*
X172946036Y-74960731D01*
X172695478Y-74972400D01*
X172453069Y-74960871D01*
X172257742Y-74929308D01*
X172101840Y-74881517D01*
X171978652Y-74820195D01*
X171882608Y-74746749D01*
X171809529Y-74661174D01*
X171756920Y-74562036D01*
X171724175Y-74446608D01*
X171712644Y-74311113D01*
X171964703Y-74311113D01*
X171976590Y-74399218D01*
X172011035Y-74473512D01*
X172069438Y-74537573D01*
X172157201Y-74592630D01*
X172282997Y-74637385D01*
X172458016Y-74668302D01*
X172695478Y-74680041D01*
X172943411Y-74668134D01*
X173125618Y-74636826D01*
X173256055Y-74591631D01*
X173346575Y-74536269D01*
X173406438Y-74472206D01*
X173441539Y-74398334D01*
X173453607Y-74311113D01*
X173441541Y-74223927D01*
X173406446Y-74150084D01*
X173346589Y-74086042D01*
X173256075Y-74030696D01*
X173125638Y-73985512D01*
X172943426Y-73954211D01*
X172695478Y-73942306D01*
X172458002Y-73954043D01*
X172282978Y-73984953D01*
X172157182Y-74029698D01*
X172069423Y-74084739D01*
X172011027Y-74148778D01*
X171976588Y-74223044D01*
X171964703Y-74311113D01*
X171712644Y-74311113D01*
X171724174Y-74175649D01*
X171756916Y-74060246D01*
X171809521Y-73961128D01*
X171882596Y-73875568D01*
X171978637Y-73802134D01*
X172101824Y-73740820D01*
X172257728Y-73693035D01*
X172453060Y-73661475D01*
X172695478Y-73649947D01*
X172946046Y-73661615D01*
G37*
G36*
X171740000Y-73283827D02*
G01*
X172046769Y-73283827D01*
X172182162Y-73058018D01*
X172313517Y-72874371D01*
X172440950Y-72727450D01*
X172564808Y-72612404D01*
X172707040Y-72511493D01*
X172845910Y-72443085D01*
X172983175Y-72403424D01*
X173120949Y-72390387D01*
X173228851Y-72400775D01*
X173309899Y-72428889D01*
X173370443Y-72472330D01*
X173414520Y-72532241D01*
X173443049Y-72612940D01*
X173453607Y-72720969D01*
X173438440Y-72830988D01*
X173389616Y-72951901D01*
X173315249Y-73063507D01*
X173219745Y-73158164D01*
X173406713Y-73346720D01*
X173489131Y-73276894D01*
X173561400Y-73188555D01*
X173623722Y-73079030D01*
X173669368Y-72961109D01*
X173696559Y-72840340D01*
X173705666Y-72715474D01*
X173694987Y-72560225D01*
X173665597Y-72435432D01*
X173620330Y-72335459D01*
X173560341Y-72255809D01*
X173483450Y-72192293D01*
X173387688Y-72144932D01*
X173268928Y-72114434D01*
X173121803Y-72103401D01*
X172978112Y-72114718D01*
X172836977Y-72148774D01*
X172696812Y-72206537D01*
X172556259Y-72290003D01*
X172430343Y-72388253D01*
X172301903Y-72513133D01*
X172170501Y-72668229D01*
X172035900Y-72857623D01*
X171740000Y-72857623D01*
X171740000Y-73283827D01*
G37*
G36*
X171740000Y-73201884D02*
G01*
X171994012Y-73201884D01*
X171994012Y-72021458D01*
X171740000Y-72021458D01*
X171740000Y-73201884D01*
G37*
G36*
X171712644Y-71013346D02*
G01*
X171723358Y-71171414D01*
X171753216Y-71302202D01*
X171799793Y-71410389D01*
X171862121Y-71499755D01*
X171942456Y-71573568D01*
X172037278Y-71626795D01*
X172149488Y-71660056D01*
X172283196Y-71671824D01*
X172283196Y-71379466D01*
X172186794Y-71368039D01*
X172110037Y-71335972D01*
X172048356Y-71283845D01*
X172003898Y-71215340D01*
X171975216Y-71126207D01*
X171964703Y-71010537D01*
X171977384Y-70898512D01*
X172012730Y-70810168D01*
X172069605Y-70740038D01*
X172144991Y-70688899D01*
X172241537Y-70656280D01*
X172365261Y-70644417D01*
X172485542Y-70657113D01*
X172580121Y-70692314D01*
X172654811Y-70748342D01*
X172710110Y-70823643D01*
X172745084Y-70919942D01*
X172757759Y-71043387D01*
X172747697Y-71168618D01*
X172717836Y-71287397D01*
X172667878Y-71401325D01*
X172900153Y-71376779D01*
X172952192Y-71267399D01*
X172982707Y-71162334D01*
X172998653Y-71055297D01*
X173003956Y-70947766D01*
X172992415Y-70808387D01*
X172959929Y-70691934D01*
X172908304Y-70594152D01*
X172837383Y-70511915D01*
X172750368Y-70447247D01*
X172645259Y-70399215D01*
X172518395Y-70368542D01*
X172365139Y-70357554D01*
X172228567Y-70366843D01*
X172111778Y-70393111D01*
X172011598Y-70434734D01*
X171921671Y-70494091D01*
X171847996Y-70568056D01*
X171789092Y-70658094D01*
X171747921Y-70758322D01*
X171721874Y-70875650D01*
X171712644Y-71013346D01*
G37*
G36*
X172667878Y-71554344D02*
G01*
X173678311Y-71526988D01*
X173678311Y-71245621D01*
X172837138Y-71272854D01*
X172667878Y-71401325D01*
X172667878Y-71554344D01*
G37*
G36*
X173424298Y-71395830D02*
G01*
X173678311Y-71420498D01*
X173678311Y-70480530D01*
X173424298Y-70480530D01*
X173424298Y-71395830D01*
G37*
D11*
G04 #@! TO.C,G\u002A\u002A\u002A*
G36*
X237128707Y-112536077D02*
G01*
X240976434Y-123107618D01*
X240862168Y-123149208D01*
X240823006Y-123164095D01*
X240769687Y-123193243D01*
X240739891Y-123235164D01*
X240717130Y-123307902D01*
X240686360Y-123425007D01*
X240608984Y-123404461D01*
X240598416Y-123401623D01*
X240541570Y-123386229D01*
X240442547Y-123359342D01*
X240305558Y-123322108D01*
X240134812Y-123275672D01*
X239934520Y-123221179D01*
X239708894Y-123159776D01*
X239462144Y-123092608D01*
X239198481Y-123020820D01*
X238922115Y-122945557D01*
X238697365Y-122884347D01*
X238365910Y-122794088D01*
X238021787Y-122700389D01*
X237673697Y-122605620D01*
X237330340Y-122512148D01*
X237000419Y-122422344D01*
X236692635Y-122338574D01*
X236415690Y-122263210D01*
X236178284Y-122198618D01*
X235043947Y-121890035D01*
X234964679Y-122007352D01*
X234964229Y-122008015D01*
X234938254Y-122045651D01*
X234885629Y-122121302D01*
X234808322Y-122232151D01*
X234708308Y-122375377D01*
X234587553Y-122548167D01*
X234448029Y-122747701D01*
X234291710Y-122971163D01*
X234120563Y-123215731D01*
X233936559Y-123478593D01*
X233741671Y-123756928D01*
X233537866Y-124047920D01*
X233327116Y-124348751D01*
X233312230Y-124369998D01*
X233102769Y-124668953D01*
X232900924Y-124957038D01*
X232708611Y-125231520D01*
X232527742Y-125489666D01*
X232360240Y-125728739D01*
X232208015Y-125946005D01*
X232072987Y-126138731D01*
X231957070Y-126304178D01*
X231862178Y-126439616D01*
X231790231Y-126542309D01*
X231743142Y-126609522D01*
X231722830Y-126638520D01*
X231676839Y-126704206D01*
X231577993Y-126634276D01*
X231543592Y-126610671D01*
X231489407Y-126583598D01*
X231437915Y-126583095D01*
X231364882Y-126605937D01*
X231250615Y-126647527D01*
X227402889Y-116075984D01*
X223555162Y-105504444D01*
X223790059Y-105418946D01*
X224024955Y-105333451D01*
X227793462Y-115668983D01*
X231561969Y-126004515D01*
X232812834Y-124214938D01*
X232920417Y-124061014D01*
X233115322Y-123782100D01*
X233306768Y-123508074D01*
X233491958Y-123242947D01*
X233668090Y-122990726D01*
X233832367Y-122755422D01*
X233981989Y-122541045D01*
X234114156Y-122351604D01*
X234226070Y-122191112D01*
X234314928Y-122063575D01*
X234377936Y-121973005D01*
X234417217Y-121916495D01*
X234506926Y-121787726D01*
X234585966Y-121674665D01*
X234649881Y-121583658D01*
X234694222Y-121521053D01*
X234714535Y-121493198D01*
X234723170Y-121487607D01*
X234768466Y-121495277D01*
X234839698Y-121535294D01*
X234942498Y-121604845D01*
X234970875Y-121486601D01*
X234999253Y-121368357D01*
X235077354Y-121386530D01*
X235106193Y-121393867D01*
X235181265Y-121413729D01*
X235295103Y-121444215D01*
X235442487Y-121483915D01*
X235618194Y-121531421D01*
X235817001Y-121585322D01*
X236033687Y-121644208D01*
X236263027Y-121706669D01*
X236372849Y-121736607D01*
X236627454Y-121805987D01*
X236883917Y-121875841D01*
X237133893Y-121943898D01*
X237369030Y-122007884D01*
X237580980Y-122065527D01*
X237761391Y-122114555D01*
X237901914Y-122152695D01*
X238019998Y-122184727D01*
X238202946Y-122234387D01*
X238416386Y-122292354D01*
X238650473Y-122355951D01*
X238895355Y-122422502D01*
X239141186Y-122489332D01*
X239378114Y-122553765D01*
X240323001Y-122810775D01*
X236567095Y-112473149D01*
X232811188Y-102135525D01*
X233046085Y-102050030D01*
X233280982Y-101964534D01*
X237128707Y-112536077D01*
G37*
G36*
X204853917Y-102150029D02*
G01*
X205088813Y-102235524D01*
X201332105Y-112575351D01*
X197575397Y-122915177D01*
X199683933Y-122348322D01*
X199865287Y-122299562D01*
X200193875Y-122211184D01*
X200516672Y-122124328D01*
X200828956Y-122040266D01*
X201126006Y-121960269D01*
X201403100Y-121885611D01*
X201655515Y-121817564D01*
X201878531Y-121757399D01*
X202067425Y-121706392D01*
X202217473Y-121665810D01*
X202323957Y-121636930D01*
X202390372Y-121618890D01*
X202541865Y-121577911D01*
X202675087Y-121542107D01*
X202782547Y-121513476D01*
X202856756Y-121494019D01*
X202890221Y-121485738D01*
X202900430Y-121487005D01*
X202930199Y-121521997D01*
X202959043Y-121598439D01*
X202993086Y-121717796D01*
X203090830Y-121645457D01*
X203188574Y-121573118D01*
X203236722Y-121637241D01*
X203254098Y-121661399D01*
X203298839Y-121724869D01*
X203366448Y-121821397D01*
X203453832Y-121946546D01*
X203557895Y-122095880D01*
X203675543Y-122264961D01*
X203803683Y-122449353D01*
X203939219Y-122644618D01*
X204004103Y-122738144D01*
X204154545Y-122954949D01*
X204306106Y-123173312D01*
X204453853Y-123386128D01*
X204592849Y-123586287D01*
X204718159Y-123766683D01*
X204824848Y-123920206D01*
X204907979Y-124039750D01*
X204977847Y-124140191D01*
X205086072Y-124295829D01*
X205212316Y-124477431D01*
X205350758Y-124676617D01*
X205495570Y-124885005D01*
X205640930Y-125094217D01*
X205781011Y-125295870D01*
X206339633Y-126100113D01*
X210107340Y-115766782D01*
X213875045Y-105433452D01*
X214109942Y-105518948D01*
X214344838Y-105604443D01*
X210497111Y-116175985D01*
X206649385Y-126747527D01*
X206535119Y-126705938D01*
X206495550Y-126692169D01*
X206435969Y-126680225D01*
X206386198Y-126693186D01*
X206322007Y-126734276D01*
X206223162Y-126804205D01*
X206177095Y-126738729D01*
X206170824Y-126729762D01*
X206137172Y-126681430D01*
X206078599Y-126597183D01*
X205997593Y-126480605D01*
X205896642Y-126335279D01*
X205778237Y-126164790D01*
X205644866Y-125972723D01*
X205499020Y-125762661D01*
X205343187Y-125538189D01*
X205179856Y-125302890D01*
X205047033Y-125111534D01*
X204851141Y-124829336D01*
X204647756Y-124536361D01*
X204442020Y-124240015D01*
X204239076Y-123947706D01*
X204044067Y-123666843D01*
X203862137Y-123404832D01*
X203698428Y-123169083D01*
X203558084Y-122967001D01*
X202887484Y-122001475D01*
X202751351Y-122040392D01*
X202750580Y-122040612D01*
X202706490Y-122052746D01*
X202617549Y-122076871D01*
X202487077Y-122112094D01*
X202318397Y-122157524D01*
X202114826Y-122212269D01*
X201879687Y-122275437D01*
X201616301Y-122346138D01*
X201327989Y-122423477D01*
X201018070Y-122506566D01*
X200689866Y-122594511D01*
X200346697Y-122686420D01*
X199991883Y-122781403D01*
X199966822Y-122788110D01*
X199614201Y-122882484D01*
X199274401Y-122973427D01*
X198950646Y-123060076D01*
X198646161Y-123141567D01*
X198364173Y-123217039D01*
X198107907Y-123285626D01*
X197880587Y-123346468D01*
X197685442Y-123398698D01*
X197525693Y-123441455D01*
X197404569Y-123473875D01*
X197325293Y-123495095D01*
X197291093Y-123504252D01*
X197213640Y-123525008D01*
X197182870Y-123407902D01*
X197171690Y-123367707D01*
X197147584Y-123312139D01*
X197108462Y-123278654D01*
X197037833Y-123249208D01*
X196923566Y-123207618D01*
X200771293Y-112636076D01*
X204619019Y-102064535D01*
X204853917Y-102150029D01*
G37*
G36*
X207166740Y-93096258D02*
G01*
X207194054Y-93103938D01*
X207287928Y-93151925D01*
X207320418Y-93209215D01*
X207295467Y-93264341D01*
X207217020Y-93305837D01*
X207089021Y-93322234D01*
X207082182Y-93322282D01*
X206962726Y-93336726D01*
X206822458Y-93379518D01*
X206652816Y-93454407D01*
X206445241Y-93565142D01*
X206191173Y-93715472D01*
X206054906Y-93796393D01*
X205720920Y-93980021D01*
X205330802Y-94178011D01*
X204892178Y-94387038D01*
X204412678Y-94603777D01*
X203899929Y-94824902D01*
X203361559Y-95047089D01*
X202805195Y-95267012D01*
X202238467Y-95481347D01*
X201669001Y-95686767D01*
X201245311Y-95832173D01*
X200005021Y-96219356D01*
X198717191Y-96567034D01*
X197390506Y-96873619D01*
X196033650Y-97137522D01*
X194655308Y-97357153D01*
X193264164Y-97530923D01*
X191868902Y-97657243D01*
X190478207Y-97734525D01*
X190336277Y-97739655D01*
X189459144Y-97761040D01*
X188629475Y-97763078D01*
X187850628Y-97745930D01*
X187125960Y-97709754D01*
X186458831Y-97654710D01*
X185852599Y-97580959D01*
X185310621Y-97488660D01*
X185113096Y-97447201D01*
X184863351Y-97391434D01*
X184588421Y-97327470D01*
X184309900Y-97260335D01*
X184049379Y-97195055D01*
X184023246Y-97188359D01*
X183777145Y-97126034D01*
X183529785Y-97064552D01*
X183298430Y-97008130D01*
X183100344Y-96960981D01*
X182952790Y-96927320D01*
X182841862Y-96901782D01*
X182700765Y-96865351D01*
X182594194Y-96833068D01*
X182539228Y-96809788D01*
X182535523Y-96806973D01*
X182503723Y-96747767D01*
X182535760Y-96677775D01*
X182628229Y-96604836D01*
X182700499Y-96573744D01*
X182796332Y-96554591D01*
X182921193Y-96548012D01*
X183080660Y-96554572D01*
X183280315Y-96574840D01*
X183525738Y-96609381D01*
X183822508Y-96658763D01*
X184176207Y-96723551D01*
X184592414Y-96804314D01*
X185123322Y-96898930D01*
X185700992Y-96982838D01*
X186300045Y-97052642D01*
X186896328Y-97105187D01*
X187046593Y-97113382D01*
X187255708Y-97120714D01*
X187512167Y-97127063D01*
X187805298Y-97132373D01*
X188124429Y-97136584D01*
X188458887Y-97139640D01*
X188798000Y-97141482D01*
X189131097Y-97142052D01*
X189447504Y-97141293D01*
X189736550Y-97139147D01*
X189987562Y-97135556D01*
X190189868Y-97130463D01*
X190332796Y-97123808D01*
X190440978Y-97116938D01*
X190612056Y-97106844D01*
X190820870Y-97095046D01*
X191050493Y-97082500D01*
X191284000Y-97070160D01*
X192584948Y-96979539D01*
X194026265Y-96827614D01*
X195477989Y-96622081D01*
X196924552Y-96364886D01*
X197066931Y-96336589D01*
X197823187Y-96175329D01*
X198606136Y-95991167D01*
X199406133Y-95787077D01*
X200213537Y-95566032D01*
X201018705Y-95331006D01*
X201811993Y-95084972D01*
X202583760Y-94830903D01*
X203324363Y-94571773D01*
X204024159Y-94310555D01*
X204673505Y-94050222D01*
X205262759Y-93793748D01*
X205376997Y-93741714D01*
X205739726Y-93577643D01*
X206046541Y-93441213D01*
X206303097Y-93330353D01*
X206515048Y-93242990D01*
X206688051Y-93177053D01*
X206827758Y-93130471D01*
X206939827Y-93101172D01*
X207029910Y-93087085D01*
X207103663Y-93086137D01*
X207166740Y-93096258D01*
G37*
G36*
X201183937Y-96132730D02*
G01*
X201198759Y-96149228D01*
X201197923Y-96151414D01*
X201157923Y-96179767D01*
X201065201Y-96230320D01*
X200929809Y-96298417D01*
X200761799Y-96379401D01*
X200571221Y-96468615D01*
X200368129Y-96561404D01*
X200162573Y-96653111D01*
X199964605Y-96739080D01*
X199784278Y-96814655D01*
X199631642Y-96875178D01*
X199596684Y-96888022D01*
X199445482Y-96938727D01*
X199237298Y-97003609D01*
X198980424Y-97080381D01*
X198683153Y-97166754D01*
X198353778Y-97260441D01*
X198000593Y-97359156D01*
X197631890Y-97460609D01*
X197255963Y-97562515D01*
X196881103Y-97662586D01*
X196515605Y-97758533D01*
X196167761Y-97848070D01*
X195845864Y-97928909D01*
X195558207Y-97998762D01*
X195462509Y-98021258D01*
X194711417Y-98183442D01*
X193911403Y-98332845D01*
X193080525Y-98466747D01*
X192236845Y-98582427D01*
X191398420Y-98677164D01*
X190583310Y-98748238D01*
X190581656Y-98748359D01*
X190389309Y-98758941D01*
X190139262Y-98767500D01*
X189843728Y-98774026D01*
X189514923Y-98778506D01*
X189165058Y-98780926D01*
X188806347Y-98781276D01*
X188451005Y-98779542D01*
X188111244Y-98775713D01*
X187799279Y-98769776D01*
X187527321Y-98761720D01*
X187307586Y-98751530D01*
X187169353Y-98742985D01*
X186620648Y-98702965D01*
X186060133Y-98653052D01*
X185498042Y-98594594D01*
X184944609Y-98528939D01*
X184410069Y-98457436D01*
X183904656Y-98381434D01*
X183438603Y-98302280D01*
X183022146Y-98221323D01*
X182665517Y-98139912D01*
X182407627Y-98071408D01*
X182147403Y-97995349D01*
X181897423Y-97915939D01*
X181667292Y-97836638D01*
X181466614Y-97760902D01*
X181304995Y-97692191D01*
X181192040Y-97633964D01*
X181137354Y-97589678D01*
X181133260Y-97566574D01*
X181164899Y-97510315D01*
X181232445Y-97451433D01*
X181316560Y-97405030D01*
X181397907Y-97386207D01*
X181446698Y-97392378D01*
X181558150Y-97411283D01*
X181724196Y-97441563D01*
X181937638Y-97481843D01*
X182191277Y-97530748D01*
X182477917Y-97586902D01*
X182790357Y-97648931D01*
X183121401Y-97715459D01*
X183371205Y-97765577D01*
X183720945Y-97834536D01*
X184061219Y-97900309D01*
X184382170Y-97961058D01*
X184673941Y-98014947D01*
X184926672Y-98060136D01*
X185130506Y-98094789D01*
X185275586Y-98117067D01*
X185379398Y-98131148D01*
X186724404Y-98275715D01*
X188084387Y-98352175D01*
X189458171Y-98360577D01*
X190844576Y-98300969D01*
X192242422Y-98173400D01*
X193650531Y-97977919D01*
X195067724Y-97714572D01*
X195128035Y-97701736D01*
X195300483Y-97663830D01*
X195527628Y-97612808D01*
X195800355Y-97550794D01*
X196109548Y-97479913D01*
X196446092Y-97402291D01*
X196800872Y-97320051D01*
X197164773Y-97235319D01*
X197528680Y-97150220D01*
X197883478Y-97066878D01*
X198220051Y-96987418D01*
X198529284Y-96913965D01*
X198802062Y-96848643D01*
X199029270Y-96793578D01*
X199201793Y-96750895D01*
X199222626Y-96745496D01*
X199359082Y-96706302D01*
X199543005Y-96649170D01*
X199759139Y-96579031D01*
X199992227Y-96500818D01*
X200227010Y-96419464D01*
X200502772Y-96323211D01*
X200737992Y-96243700D01*
X200918305Y-96186401D01*
X201049125Y-96149811D01*
X201135864Y-96132422D01*
X201183937Y-96132730D01*
G37*
G36*
X186303474Y-72659921D02*
G01*
X187103717Y-72669523D01*
X187906702Y-72686047D01*
X188721962Y-72709811D01*
X189559027Y-72741137D01*
X190427432Y-72780344D01*
X191336707Y-72827751D01*
X192296386Y-72883679D01*
X193316000Y-72948447D01*
X193507369Y-72961013D01*
X193867806Y-72984540D01*
X194240320Y-73008701D01*
X194608511Y-73032438D01*
X194955983Y-73054697D01*
X195266336Y-73074422D01*
X195523173Y-73090555D01*
X195662466Y-73099444D01*
X196381953Y-73153202D01*
X197053387Y-73218063D01*
X197694950Y-73296449D01*
X198324820Y-73390786D01*
X198961179Y-73503496D01*
X199622207Y-73637003D01*
X199862728Y-73688846D01*
X200478361Y-73828240D01*
X201048231Y-73968428D01*
X201589948Y-74114289D01*
X202121117Y-74270703D01*
X202659348Y-74442551D01*
X203222248Y-74634711D01*
X203479381Y-74726204D01*
X204138161Y-74973877D01*
X204732457Y-75218598D01*
X205266186Y-75462461D01*
X205743264Y-75707561D01*
X206167606Y-75955991D01*
X206543129Y-76209845D01*
X206873748Y-76471218D01*
X207163379Y-76742203D01*
X207226855Y-76807293D01*
X207349577Y-76936946D01*
X207432551Y-77036228D01*
X207482853Y-77118609D01*
X207507561Y-77197557D01*
X207513752Y-77286543D01*
X207508501Y-77399034D01*
X207483517Y-77487081D01*
X207413678Y-77582965D01*
X207383414Y-77608095D01*
X207313564Y-77647111D01*
X207234289Y-77659047D01*
X207135858Y-77641482D01*
X207008536Y-77591994D01*
X206842593Y-77508163D01*
X206628295Y-77387567D01*
X206431525Y-77274675D01*
X205935087Y-76999426D01*
X205465971Y-76755380D01*
X205008113Y-76535359D01*
X204545450Y-76332186D01*
X204061919Y-76138683D01*
X203541456Y-75947672D01*
X202968000Y-75751975D01*
X202636569Y-75644055D01*
X202002767Y-75448310D01*
X201365777Y-75266244D01*
X200716048Y-75095613D01*
X200044030Y-74934172D01*
X199340173Y-74779675D01*
X198594928Y-74629877D01*
X197798743Y-74482534D01*
X196942069Y-74335400D01*
X196418812Y-74250434D01*
X195836448Y-74160779D01*
X195258959Y-74077521D01*
X194679532Y-73999959D01*
X194091355Y-73927393D01*
X193487616Y-73859125D01*
X192861503Y-73794454D01*
X192206205Y-73732680D01*
X191514910Y-73673103D01*
X190780806Y-73615024D01*
X189997080Y-73557743D01*
X189156921Y-73500560D01*
X188253517Y-73442775D01*
X187817548Y-73415856D01*
X187333535Y-73386699D01*
X186899932Y-73361677D01*
X186505969Y-73340355D01*
X186140874Y-73322301D01*
X185793878Y-73307080D01*
X185454210Y-73294260D01*
X185111100Y-73283406D01*
X184753777Y-73274086D01*
X184371471Y-73265866D01*
X183953411Y-73258312D01*
X183488828Y-73250990D01*
X183084866Y-73244855D01*
X182743720Y-73239321D01*
X182460170Y-73234080D01*
X182227976Y-73228814D01*
X182040896Y-73223202D01*
X181892691Y-73216922D01*
X181777120Y-73209655D01*
X181687942Y-73201079D01*
X181618917Y-73190873D01*
X181563804Y-73178718D01*
X181516362Y-73164293D01*
X181470352Y-73147276D01*
X181383562Y-73109746D01*
X181279310Y-73054003D01*
X181215200Y-73006200D01*
X181181921Y-72964047D01*
X181189085Y-72933910D01*
X181254228Y-72903619D01*
X181286933Y-72891198D01*
X181408184Y-72850652D01*
X181541867Y-72815203D01*
X181693221Y-72784483D01*
X181867485Y-72758121D01*
X182069898Y-72735751D01*
X182305698Y-72717001D01*
X182580126Y-72701504D01*
X182898419Y-72688891D01*
X183265818Y-72678792D01*
X183687561Y-72670838D01*
X184168886Y-72664661D01*
X184715035Y-72659892D01*
X185496440Y-72656920D01*
X186303474Y-72659921D01*
G37*
G36*
X183646483Y-85203092D02*
G01*
X183708693Y-85219125D01*
X184037046Y-85302452D01*
X184326001Y-85373537D01*
X184569934Y-85431083D01*
X184763219Y-85473793D01*
X184900233Y-85500370D01*
X184975351Y-85509517D01*
X184976780Y-85509543D01*
X185034808Y-85517041D01*
X185151180Y-85536644D01*
X185316178Y-85566552D01*
X185520080Y-85604968D01*
X185753168Y-85650094D01*
X186005723Y-85700131D01*
X186009786Y-85700945D01*
X186266195Y-85751937D01*
X186506588Y-85799064D01*
X186720434Y-85840314D01*
X186897202Y-85873674D01*
X187026361Y-85897133D01*
X187097379Y-85908680D01*
X187166157Y-85917750D01*
X187296099Y-85935242D01*
X187468715Y-85958682D01*
X187669927Y-85986158D01*
X187885655Y-86015758D01*
X188366672Y-86080894D01*
X188839647Y-86142356D01*
X189251560Y-86192755D01*
X189606608Y-86232581D01*
X189908988Y-86262327D01*
X190162897Y-86282483D01*
X190320185Y-86293890D01*
X190539513Y-86311910D01*
X190748019Y-86331110D01*
X190916138Y-86348883D01*
X191018471Y-86360320D01*
X191339010Y-86390966D01*
X191527421Y-86405903D01*
X191716955Y-86420929D01*
X192143065Y-86449760D01*
X192608102Y-86477007D01*
X193102825Y-86502221D01*
X193617995Y-86524950D01*
X194144372Y-86544745D01*
X194672715Y-86561155D01*
X195193786Y-86573730D01*
X195698345Y-86582019D01*
X195731144Y-86582418D01*
X195742546Y-86582558D01*
X196038357Y-86586190D01*
X196329048Y-86589819D01*
X196594293Y-86593189D01*
X196825169Y-86596184D01*
X197012752Y-86598689D01*
X197148119Y-86600587D01*
X197222345Y-86601764D01*
X197248314Y-86601997D01*
X197366278Y-86600549D01*
X197530113Y-86596286D01*
X197721728Y-86589733D01*
X197923035Y-86581416D01*
X198162731Y-86571521D01*
X198444418Y-86561406D01*
X198726611Y-86552537D01*
X198974069Y-86546099D01*
X199219748Y-86539746D01*
X199518612Y-86529947D01*
X199823757Y-86518021D01*
X200125643Y-86504485D01*
X200414728Y-86489854D01*
X200681473Y-86474644D01*
X200916339Y-86459374D01*
X201109784Y-86444558D01*
X201252269Y-86430713D01*
X201334254Y-86418355D01*
X201334395Y-86418322D01*
X201448125Y-86401012D01*
X201599097Y-86390261D01*
X201754668Y-86388395D01*
X201765942Y-86388616D01*
X201910220Y-86385640D01*
X202037254Y-86373598D01*
X202120695Y-86354902D01*
X202144240Y-86346795D01*
X202254723Y-86324332D01*
X202377309Y-86315310D01*
X202418342Y-86314059D01*
X202538762Y-86305816D01*
X202703659Y-86291144D01*
X202896811Y-86271538D01*
X203101994Y-86248495D01*
X203272163Y-86229194D01*
X203490562Y-86206715D01*
X203725192Y-86185248D01*
X203985013Y-86164110D01*
X204278987Y-86142617D01*
X204616076Y-86120088D01*
X205005243Y-86095839D01*
X205455448Y-86069188D01*
X205526385Y-86065010D01*
X205825625Y-86045755D01*
X206109665Y-86024290D01*
X206399660Y-85998785D01*
X206716762Y-85967406D01*
X207082128Y-85928323D01*
X207183762Y-85918172D01*
X207313651Y-85909929D01*
X207386264Y-85912725D01*
X207397577Y-85926223D01*
X207343566Y-85950089D01*
X207288289Y-85969598D01*
X207185008Y-86007771D01*
X207062962Y-86053994D01*
X206972776Y-86085436D01*
X206802738Y-86137762D01*
X206585757Y-86199555D01*
X206334053Y-86267655D01*
X206059850Y-86338900D01*
X205775369Y-86410128D01*
X205492833Y-86478180D01*
X205224463Y-86539892D01*
X204982483Y-86592105D01*
X204934369Y-86602066D01*
X204730365Y-86644768D01*
X204697967Y-86651660D01*
X204534260Y-86686485D01*
X204366307Y-86722879D01*
X204354650Y-86725486D01*
X204246759Y-86749615D01*
X204181699Y-86763564D01*
X203986787Y-86798281D01*
X203738737Y-86835286D01*
X203449255Y-86873013D01*
X203130050Y-86909892D01*
X202938606Y-86929457D01*
X202792828Y-86944355D01*
X202610815Y-86962063D01*
X202381301Y-86984882D01*
X202140150Y-87009246D01*
X201916966Y-87032186D01*
X201903123Y-87033613D01*
X201671115Y-87055055D01*
X201381918Y-87078121D01*
X201047527Y-87102083D01*
X200679938Y-87126211D01*
X200291146Y-87149777D01*
X199893147Y-87172051D01*
X199497936Y-87192305D01*
X199117510Y-87209808D01*
X198763862Y-87223833D01*
X198464288Y-87233613D01*
X197658881Y-87251507D01*
X196816496Y-87259090D01*
X195950459Y-87256663D01*
X195074094Y-87244526D01*
X194200726Y-87222981D01*
X193343680Y-87192328D01*
X192516281Y-87152867D01*
X191731854Y-87104900D01*
X191003724Y-87048727D01*
X190912784Y-87040815D01*
X189899621Y-86946195D01*
X189381994Y-86890914D01*
X191873072Y-86890914D01*
X191879586Y-86910896D01*
X191897860Y-86919367D01*
X191981530Y-86936872D01*
X192089793Y-86942932D01*
X192174272Y-86939441D01*
X192205042Y-86929457D01*
X192177379Y-86910896D01*
X192155390Y-86902846D01*
X192077181Y-86886084D01*
X191991183Y-86878508D01*
X191916709Y-86880118D01*
X191873072Y-86890914D01*
X189381994Y-86890914D01*
X188945511Y-86844299D01*
X188040523Y-86733555D01*
X187628493Y-86675893D01*
X189436736Y-86675893D01*
X189462207Y-86700690D01*
X189512589Y-86721412D01*
X189602345Y-86734651D01*
X189627065Y-86734233D01*
X189662850Y-86725486D01*
X189637379Y-86700690D01*
X189586998Y-86679967D01*
X189497241Y-86666728D01*
X189472521Y-86667146D01*
X189436736Y-86675893D01*
X187628493Y-86675893D01*
X187406171Y-86644780D01*
X188970543Y-86644780D01*
X188978054Y-86653874D01*
X189041793Y-86657527D01*
X189065564Y-86657188D01*
X189114007Y-86651660D01*
X189103104Y-86641505D01*
X189069338Y-86636056D01*
X188980483Y-86641505D01*
X188970543Y-86644780D01*
X187406171Y-86644780D01*
X187174725Y-86612390D01*
X186743757Y-86543790D01*
X188206331Y-86543790D01*
X188236000Y-86558834D01*
X188277062Y-86570065D01*
X188359575Y-86584598D01*
X188441713Y-86592829D01*
X188500599Y-86592801D01*
X188513356Y-86582558D01*
X188496951Y-86576671D01*
X188426798Y-86563287D01*
X188323586Y-86549298D01*
X188244537Y-86541729D01*
X188206331Y-86543790D01*
X186743757Y-86543790D01*
X186338182Y-86479232D01*
X185815439Y-86385379D01*
X186992276Y-86385379D01*
X186992933Y-86386370D01*
X187041662Y-86409701D01*
X187125723Y-86417951D01*
X187183359Y-86415261D01*
X187204821Y-86405903D01*
X187167448Y-86385379D01*
X187131994Y-86371987D01*
X187052732Y-86354800D01*
X186999370Y-86359264D01*
X186992276Y-86385379D01*
X185815439Y-86385379D01*
X185520964Y-86332509D01*
X184713138Y-86170647D01*
X183904771Y-85992075D01*
X183085931Y-85795220D01*
X182826836Y-85729902D01*
X182557249Y-85659316D01*
X182325860Y-85594254D01*
X182116052Y-85529235D01*
X181911205Y-85458776D01*
X181694702Y-85377395D01*
X181449926Y-85279609D01*
X181160258Y-85159936D01*
X181102384Y-85134376D01*
X182605012Y-85134376D01*
X182630483Y-85159172D01*
X182680864Y-85179895D01*
X182770621Y-85193134D01*
X182795341Y-85192715D01*
X182831126Y-85183969D01*
X182805655Y-85159172D01*
X182755274Y-85138450D01*
X182665517Y-85125211D01*
X182640797Y-85125629D01*
X182605012Y-85134376D01*
X181102384Y-85134376D01*
X181056294Y-85114020D01*
X180897059Y-85031575D01*
X180775191Y-84952542D01*
X180695952Y-84882084D01*
X180664607Y-84825364D01*
X180686418Y-84787546D01*
X180766648Y-84773793D01*
X180841798Y-84763794D01*
X180904113Y-84734425D01*
X180944106Y-84715786D01*
X181027693Y-84714358D01*
X181165120Y-84733312D01*
X181226851Y-84743260D01*
X181385749Y-84765689D01*
X181571205Y-84788962D01*
X181754621Y-84809387D01*
X181995225Y-84839378D01*
X182328694Y-84893399D01*
X182673200Y-84960924D01*
X182998345Y-85036405D01*
X183010036Y-85039380D01*
X183119229Y-85067320D01*
X183274339Y-85107168D01*
X183456408Y-85154051D01*
X183572365Y-85183969D01*
X183646483Y-85203092D01*
G37*
G36*
X251838552Y-72473168D02*
G01*
X252563220Y-72509344D01*
X253230349Y-72564388D01*
X253836581Y-72638139D01*
X254378559Y-72730438D01*
X254576084Y-72771897D01*
X254825829Y-72827664D01*
X255100759Y-72891628D01*
X255379280Y-72958763D01*
X255639801Y-73024043D01*
X255665934Y-73030739D01*
X255912035Y-73093064D01*
X256159395Y-73154546D01*
X256390750Y-73210968D01*
X256588836Y-73258117D01*
X256736390Y-73291778D01*
X256847318Y-73317316D01*
X256988415Y-73353747D01*
X257094986Y-73386030D01*
X257149952Y-73409310D01*
X257153657Y-73412125D01*
X257185457Y-73471331D01*
X257153420Y-73541323D01*
X257060951Y-73614262D01*
X256988681Y-73645354D01*
X256892848Y-73664507D01*
X256767987Y-73671086D01*
X256608520Y-73664526D01*
X256408865Y-73644258D01*
X256163442Y-73609717D01*
X255866672Y-73560335D01*
X255512973Y-73495547D01*
X255096766Y-73414784D01*
X254565858Y-73320168D01*
X253988188Y-73236260D01*
X253389135Y-73166456D01*
X252792852Y-73113911D01*
X252642587Y-73105716D01*
X252433472Y-73098384D01*
X252177013Y-73092035D01*
X251883882Y-73086725D01*
X251564751Y-73082514D01*
X251230293Y-73079458D01*
X250891180Y-73077616D01*
X250558083Y-73077046D01*
X250241676Y-73077805D01*
X249952630Y-73079951D01*
X249701618Y-73083542D01*
X249499312Y-73088635D01*
X249356384Y-73095290D01*
X249248202Y-73102160D01*
X249077124Y-73112254D01*
X248868310Y-73124052D01*
X248638687Y-73136598D01*
X248405180Y-73148938D01*
X247104232Y-73239559D01*
X245662915Y-73391484D01*
X244211191Y-73597017D01*
X242764628Y-73854212D01*
X242622249Y-73882509D01*
X241865993Y-74043769D01*
X241083044Y-74227931D01*
X240283047Y-74432021D01*
X239475643Y-74653066D01*
X238670475Y-74888092D01*
X237877187Y-75134126D01*
X237105420Y-75388195D01*
X236364817Y-75647325D01*
X235665021Y-75908543D01*
X235015675Y-76168876D01*
X234426421Y-76425350D01*
X234312183Y-76477384D01*
X233949454Y-76641455D01*
X233642639Y-76777885D01*
X233386083Y-76888745D01*
X233174132Y-76976108D01*
X233001129Y-77042045D01*
X232861422Y-77088627D01*
X232749353Y-77117926D01*
X232659270Y-77132013D01*
X232585517Y-77132961D01*
X232522440Y-77122840D01*
X232495126Y-77115160D01*
X232401252Y-77067173D01*
X232368762Y-77009883D01*
X232393713Y-76954757D01*
X232472160Y-76913261D01*
X232600159Y-76896864D01*
X232606998Y-76896816D01*
X232726454Y-76882372D01*
X232866722Y-76839580D01*
X233036364Y-76764691D01*
X233243939Y-76653956D01*
X233498007Y-76503626D01*
X233634274Y-76422705D01*
X233968260Y-76239077D01*
X234358378Y-76041087D01*
X234797002Y-75832060D01*
X235276502Y-75615321D01*
X235789251Y-75394196D01*
X236327621Y-75172009D01*
X236883985Y-74952086D01*
X237450713Y-74737751D01*
X238020179Y-74532331D01*
X238443869Y-74386925D01*
X239684159Y-73999742D01*
X240971989Y-73652064D01*
X242298674Y-73345479D01*
X243655530Y-73081576D01*
X245033872Y-72861945D01*
X246425016Y-72688175D01*
X247820278Y-72561855D01*
X249210973Y-72484573D01*
X249352903Y-72479443D01*
X250230036Y-72458058D01*
X251059705Y-72456020D01*
X251838552Y-72473168D01*
G37*
G36*
X251238175Y-71439556D02*
G01*
X251577936Y-71443385D01*
X251889901Y-71449322D01*
X252161859Y-71457378D01*
X252381594Y-71467568D01*
X252519827Y-71476113D01*
X253068532Y-71516133D01*
X253629047Y-71566046D01*
X254191138Y-71624504D01*
X254744571Y-71690159D01*
X255279111Y-71761662D01*
X255784524Y-71837664D01*
X256250577Y-71916818D01*
X256667034Y-71997775D01*
X257023663Y-72079186D01*
X257281553Y-72147690D01*
X257541777Y-72223749D01*
X257791757Y-72303159D01*
X258021888Y-72382460D01*
X258222566Y-72458196D01*
X258384185Y-72526907D01*
X258497140Y-72585134D01*
X258551826Y-72629420D01*
X258555920Y-72652524D01*
X258524281Y-72708783D01*
X258456735Y-72767665D01*
X258372620Y-72814068D01*
X258291273Y-72832891D01*
X258242482Y-72826720D01*
X258131030Y-72807815D01*
X257964984Y-72777535D01*
X257751542Y-72737255D01*
X257497903Y-72688350D01*
X257211263Y-72632196D01*
X256898823Y-72570167D01*
X256567779Y-72503639D01*
X256317975Y-72453521D01*
X255968235Y-72384562D01*
X255627961Y-72318789D01*
X255307010Y-72258040D01*
X255015239Y-72204151D01*
X254762508Y-72158962D01*
X254558674Y-72124309D01*
X254413594Y-72102031D01*
X254309782Y-72087950D01*
X252964776Y-71943383D01*
X251604793Y-71866923D01*
X250231009Y-71858521D01*
X248844604Y-71918129D01*
X247446758Y-72045698D01*
X246038649Y-72241179D01*
X244621456Y-72504526D01*
X244561145Y-72517362D01*
X244388697Y-72555268D01*
X244161552Y-72606290D01*
X243888825Y-72668304D01*
X243579632Y-72739185D01*
X243243088Y-72816807D01*
X242888308Y-72899047D01*
X242524407Y-72983779D01*
X242160500Y-73068878D01*
X241805702Y-73152220D01*
X241469129Y-73231680D01*
X241159896Y-73305133D01*
X240887118Y-73370455D01*
X240659910Y-73425520D01*
X240487387Y-73468203D01*
X240466554Y-73473602D01*
X240330098Y-73512796D01*
X240146175Y-73569928D01*
X239930041Y-73640067D01*
X239696953Y-73718280D01*
X239462170Y-73799634D01*
X239186408Y-73895887D01*
X238951188Y-73975398D01*
X238770875Y-74032697D01*
X238640055Y-74069287D01*
X238553316Y-74086676D01*
X238505243Y-74086368D01*
X238490421Y-74069870D01*
X238491257Y-74067684D01*
X238531257Y-74039331D01*
X238623979Y-73988778D01*
X238759371Y-73920681D01*
X238927381Y-73839697D01*
X239117959Y-73750483D01*
X239321051Y-73657694D01*
X239526607Y-73565987D01*
X239724575Y-73480018D01*
X239904902Y-73404443D01*
X240057538Y-73343920D01*
X240092496Y-73331076D01*
X240243698Y-73280371D01*
X240451882Y-73215489D01*
X240708756Y-73138717D01*
X241006027Y-73052344D01*
X241335402Y-72958657D01*
X241688587Y-72859942D01*
X242057290Y-72758489D01*
X242433217Y-72656583D01*
X242808077Y-72556512D01*
X243173575Y-72460565D01*
X243521419Y-72371028D01*
X243843316Y-72290189D01*
X244130973Y-72220336D01*
X244226671Y-72197840D01*
X244977763Y-72035656D01*
X245777777Y-71886253D01*
X246608655Y-71752351D01*
X247452335Y-71636671D01*
X248290760Y-71541934D01*
X249105870Y-71470860D01*
X249107524Y-71470739D01*
X249299871Y-71460157D01*
X249549918Y-71451598D01*
X249845452Y-71445072D01*
X250174257Y-71440592D01*
X250524122Y-71438172D01*
X250882833Y-71437822D01*
X251238175Y-71439556D01*
G37*
G36*
X232553322Y-92577616D02*
G01*
X232680644Y-92627104D01*
X232846587Y-92710935D01*
X233060885Y-92831531D01*
X233257655Y-92944423D01*
X233754093Y-93219672D01*
X234223209Y-93463718D01*
X234681067Y-93683739D01*
X235143730Y-93886912D01*
X235627261Y-94080415D01*
X236147724Y-94271426D01*
X236721180Y-94467123D01*
X237052611Y-94575043D01*
X237686413Y-94770788D01*
X238323403Y-94952854D01*
X238973132Y-95123485D01*
X239645150Y-95284926D01*
X240349007Y-95439423D01*
X241094252Y-95589221D01*
X241890437Y-95736564D01*
X242747111Y-95883698D01*
X243270368Y-95968664D01*
X243852732Y-96058319D01*
X244430221Y-96141577D01*
X245009648Y-96219139D01*
X245597825Y-96291705D01*
X246201564Y-96359973D01*
X246827677Y-96424644D01*
X247482975Y-96486418D01*
X248174270Y-96545995D01*
X248908374Y-96604074D01*
X249692100Y-96661355D01*
X250532259Y-96718538D01*
X251435663Y-96776323D01*
X251871632Y-96803242D01*
X252355645Y-96832399D01*
X252789248Y-96857421D01*
X253183211Y-96878743D01*
X253548306Y-96896797D01*
X253895302Y-96912018D01*
X254234970Y-96924838D01*
X254578080Y-96935692D01*
X254935403Y-96945012D01*
X255317709Y-96953232D01*
X255735769Y-96960786D01*
X256200352Y-96968108D01*
X256604314Y-96974243D01*
X256945460Y-96979777D01*
X257229010Y-96985018D01*
X257461204Y-96990284D01*
X257648284Y-96995896D01*
X257796489Y-97002176D01*
X257912060Y-97009443D01*
X258001238Y-97018019D01*
X258070263Y-97028225D01*
X258125376Y-97040380D01*
X258172818Y-97054805D01*
X258218828Y-97071822D01*
X258305618Y-97109352D01*
X258409870Y-97165095D01*
X258473980Y-97212898D01*
X258507259Y-97255051D01*
X258500095Y-97285188D01*
X258434952Y-97315479D01*
X258402247Y-97327900D01*
X258280996Y-97368446D01*
X258147313Y-97403895D01*
X257995959Y-97434615D01*
X257821695Y-97460977D01*
X257619282Y-97483347D01*
X257383482Y-97502097D01*
X257109054Y-97517594D01*
X256790761Y-97530207D01*
X256423362Y-97540306D01*
X256001619Y-97548260D01*
X255520294Y-97554437D01*
X254974145Y-97559206D01*
X254192740Y-97562178D01*
X253385706Y-97559177D01*
X252585463Y-97549575D01*
X251782478Y-97533051D01*
X250967218Y-97509287D01*
X250130153Y-97477961D01*
X249261748Y-97438754D01*
X248352473Y-97391347D01*
X247392794Y-97335419D01*
X246373180Y-97270651D01*
X246181811Y-97258085D01*
X245821374Y-97234558D01*
X245448860Y-97210397D01*
X245080669Y-97186660D01*
X244733197Y-97164401D01*
X244422844Y-97144676D01*
X244166007Y-97128543D01*
X244026714Y-97119654D01*
X243307227Y-97065896D01*
X242635793Y-97001035D01*
X241994230Y-96922649D01*
X241364360Y-96828312D01*
X240728001Y-96715602D01*
X240066973Y-96582095D01*
X239826452Y-96530252D01*
X239210819Y-96390858D01*
X238640949Y-96250670D01*
X238099232Y-96104809D01*
X237568063Y-95948395D01*
X237029832Y-95776547D01*
X236466932Y-95584387D01*
X236209799Y-95492894D01*
X235551019Y-95245221D01*
X234956723Y-95000500D01*
X234422994Y-94756637D01*
X233945916Y-94511537D01*
X233521574Y-94263107D01*
X233146051Y-94009253D01*
X232815432Y-93747880D01*
X232525801Y-93476895D01*
X232462325Y-93411805D01*
X232339603Y-93282152D01*
X232256629Y-93182870D01*
X232206327Y-93100489D01*
X232181619Y-93021541D01*
X232175428Y-92932555D01*
X232180679Y-92820064D01*
X232205663Y-92732017D01*
X232275502Y-92636133D01*
X232305766Y-92611003D01*
X232375616Y-92571987D01*
X232454891Y-92560051D01*
X232553322Y-92577616D01*
G37*
G36*
X243738721Y-82962435D02*
G01*
X244615086Y-82974572D01*
X245488454Y-82996117D01*
X246345500Y-83026770D01*
X247172899Y-83066231D01*
X247957326Y-83114198D01*
X248685456Y-83170371D01*
X248776396Y-83178283D01*
X249789559Y-83272903D01*
X250743669Y-83374799D01*
X251648657Y-83485543D01*
X252514455Y-83606708D01*
X253350998Y-83739866D01*
X254168216Y-83886589D01*
X254976042Y-84048451D01*
X255784409Y-84227023D01*
X256603249Y-84423878D01*
X256862344Y-84489196D01*
X257131931Y-84559782D01*
X257363320Y-84624844D01*
X257573128Y-84689863D01*
X257777975Y-84760322D01*
X257994478Y-84841703D01*
X258239254Y-84939489D01*
X258528922Y-85059162D01*
X258632886Y-85105078D01*
X258792121Y-85187523D01*
X258913989Y-85266556D01*
X258993228Y-85337014D01*
X259024573Y-85393734D01*
X259002762Y-85431552D01*
X258922532Y-85445305D01*
X258847382Y-85455304D01*
X258785067Y-85484673D01*
X258745074Y-85503312D01*
X258661487Y-85504740D01*
X258524060Y-85485786D01*
X258462329Y-85475838D01*
X258303431Y-85453409D01*
X258117975Y-85430136D01*
X257934559Y-85409711D01*
X257693955Y-85379720D01*
X257360486Y-85325699D01*
X257015980Y-85258174D01*
X256690835Y-85182693D01*
X256679144Y-85179718D01*
X256569951Y-85151778D01*
X256414841Y-85111930D01*
X256232772Y-85065047D01*
X256116815Y-85035129D01*
X256858054Y-85035129D01*
X256883525Y-85059926D01*
X256933906Y-85080648D01*
X257023663Y-85093887D01*
X257048383Y-85093469D01*
X257084168Y-85084722D01*
X257058697Y-85059926D01*
X257008316Y-85039203D01*
X256918559Y-85025964D01*
X256893839Y-85026383D01*
X256858054Y-85035129D01*
X256116815Y-85035129D01*
X256042697Y-85016006D01*
X255980487Y-84999973D01*
X255652134Y-84916646D01*
X255363179Y-84845561D01*
X255119246Y-84788015D01*
X254925961Y-84745305D01*
X254788947Y-84718728D01*
X254713829Y-84709581D01*
X254712400Y-84709555D01*
X254654372Y-84702057D01*
X254538000Y-84682454D01*
X254373002Y-84652546D01*
X254169100Y-84614130D01*
X253936012Y-84569004D01*
X253683457Y-84518967D01*
X253679394Y-84518153D01*
X253422985Y-84467161D01*
X253182592Y-84420034D01*
X252968746Y-84378784D01*
X252791978Y-84345424D01*
X252662819Y-84321965D01*
X252591801Y-84310418D01*
X252523023Y-84301348D01*
X252393081Y-84283856D01*
X252220465Y-84260416D01*
X252019253Y-84232940D01*
X251803525Y-84203340D01*
X251322508Y-84138204D01*
X250849533Y-84076742D01*
X250437620Y-84026343D01*
X250082572Y-83986517D01*
X249780192Y-83956771D01*
X249526283Y-83936615D01*
X249368995Y-83925208D01*
X249149667Y-83907188D01*
X248941161Y-83887988D01*
X248773042Y-83870215D01*
X248670709Y-83858778D01*
X248350170Y-83828132D01*
X248161759Y-83813195D01*
X252484359Y-83813195D01*
X252521732Y-83833719D01*
X252557186Y-83847111D01*
X252636448Y-83864298D01*
X252689810Y-83859834D01*
X252696904Y-83833719D01*
X252696247Y-83832728D01*
X252647518Y-83809397D01*
X252563457Y-83801147D01*
X252505821Y-83803837D01*
X252484359Y-83813195D01*
X248161759Y-83813195D01*
X247972225Y-83798169D01*
X247546115Y-83769338D01*
X247081078Y-83742091D01*
X246586355Y-83716877D01*
X246071185Y-83694148D01*
X245544808Y-83674353D01*
X245016465Y-83657943D01*
X244495394Y-83645368D01*
X243990835Y-83637079D01*
X243958036Y-83636680D01*
X243946634Y-83636540D01*
X251175824Y-83636540D01*
X251192229Y-83642427D01*
X251262382Y-83655811D01*
X251365594Y-83669800D01*
X251444643Y-83677369D01*
X251482849Y-83675308D01*
X251453180Y-83660264D01*
X251412118Y-83649033D01*
X251329605Y-83634500D01*
X251247467Y-83626269D01*
X251188581Y-83626297D01*
X251175824Y-83636540D01*
X243946634Y-83636540D01*
X243650823Y-83632908D01*
X243360132Y-83629279D01*
X243094887Y-83625909D01*
X242864011Y-83622914D01*
X242676428Y-83620409D01*
X242541061Y-83618511D01*
X242466835Y-83617334D01*
X242440866Y-83617101D01*
X242322902Y-83618549D01*
X242159067Y-83622812D01*
X241967452Y-83629365D01*
X241766145Y-83637682D01*
X241526449Y-83647577D01*
X241244762Y-83657692D01*
X240962569Y-83666561D01*
X240715111Y-83672999D01*
X240469432Y-83679352D01*
X240170568Y-83689151D01*
X239865423Y-83701077D01*
X239563537Y-83714613D01*
X239274452Y-83729244D01*
X239007707Y-83744454D01*
X238772841Y-83759724D01*
X238579396Y-83774540D01*
X238436911Y-83788385D01*
X238354926Y-83800743D01*
X238354785Y-83800776D01*
X238241055Y-83818086D01*
X238090083Y-83828837D01*
X237934512Y-83830703D01*
X237923238Y-83830482D01*
X237778960Y-83833458D01*
X237651926Y-83845500D01*
X237568485Y-83864196D01*
X237544940Y-83872303D01*
X237434457Y-83894766D01*
X237311871Y-83903788D01*
X237270838Y-83905039D01*
X237150418Y-83913282D01*
X236985521Y-83927954D01*
X236792369Y-83947560D01*
X236587186Y-83970603D01*
X236417017Y-83989904D01*
X236198618Y-84012383D01*
X235963988Y-84033850D01*
X235704167Y-84054988D01*
X235410193Y-84076481D01*
X235073104Y-84099010D01*
X234683937Y-84123259D01*
X234233732Y-84149910D01*
X234162795Y-84154088D01*
X233863555Y-84173343D01*
X233579515Y-84194808D01*
X233289520Y-84220313D01*
X232972418Y-84251692D01*
X232607052Y-84290775D01*
X232505418Y-84300926D01*
X232375529Y-84309169D01*
X232302916Y-84306373D01*
X232291603Y-84292875D01*
X232345614Y-84269009D01*
X232400891Y-84249500D01*
X232504172Y-84211327D01*
X232626218Y-84165104D01*
X232716404Y-84133662D01*
X232886442Y-84081336D01*
X233103423Y-84019543D01*
X233355127Y-83951443D01*
X233629330Y-83880198D01*
X233913811Y-83808970D01*
X234196347Y-83740918D01*
X234464717Y-83679206D01*
X234706697Y-83626993D01*
X234754811Y-83617032D01*
X234958815Y-83574330D01*
X234991213Y-83567438D01*
X250575173Y-83567438D01*
X250586076Y-83577593D01*
X250619842Y-83583042D01*
X250708697Y-83577593D01*
X250718637Y-83574318D01*
X250711126Y-83565224D01*
X250647387Y-83561571D01*
X250623616Y-83561910D01*
X250575173Y-83567438D01*
X234991213Y-83567438D01*
X235154920Y-83532613D01*
X235322873Y-83496219D01*
X235334530Y-83493612D01*
X250026330Y-83493612D01*
X250051801Y-83518408D01*
X250102182Y-83539131D01*
X250191939Y-83552370D01*
X250216659Y-83551952D01*
X250252444Y-83543205D01*
X250226973Y-83518408D01*
X250176591Y-83497686D01*
X250086835Y-83484447D01*
X250062115Y-83484865D01*
X250026330Y-83493612D01*
X235334530Y-83493612D01*
X235442421Y-83469483D01*
X235507481Y-83455534D01*
X235702393Y-83420817D01*
X235950443Y-83383812D01*
X236239925Y-83346085D01*
X236559130Y-83309206D01*
X236750574Y-83289641D01*
X247484138Y-83289641D01*
X247511801Y-83308202D01*
X247533790Y-83316252D01*
X247611999Y-83333014D01*
X247697997Y-83340590D01*
X247772471Y-83338980D01*
X247816108Y-83328184D01*
X247809594Y-83308202D01*
X247791320Y-83299731D01*
X247707650Y-83282226D01*
X247599387Y-83276166D01*
X247514908Y-83279657D01*
X247484138Y-83289641D01*
X236750574Y-83289641D01*
X236896352Y-83274743D01*
X237078365Y-83257035D01*
X237307879Y-83234216D01*
X237549030Y-83209852D01*
X237772214Y-83186912D01*
X237786057Y-83185485D01*
X238018065Y-83164043D01*
X238307262Y-83140977D01*
X238641653Y-83117015D01*
X239009242Y-83092887D01*
X239398034Y-83069321D01*
X239796033Y-83047047D01*
X240191244Y-83026793D01*
X240571670Y-83009290D01*
X240925318Y-82995265D01*
X241224892Y-82985485D01*
X242030299Y-82967591D01*
X242872684Y-82960008D01*
X243738721Y-82962435D01*
G37*
G04 #@! TD*
%LPC*%
D12*
G04 #@! TO.C,D6*
X230460000Y-121000000D03*
D13*
X233000000Y-121000000D03*
G04 #@! TD*
D14*
G04 #@! TO.C,R5*
X201000000Y-120620000D03*
X201000000Y-113000000D03*
G04 #@! TD*
G04 #@! TO.C,R4*
X264000000Y-96810000D03*
X264000000Y-89190000D03*
G04 #@! TD*
D12*
G04 #@! TO.C,D1*
X178000000Y-72000000D03*
D13*
X175460000Y-72000000D03*
G04 #@! TD*
D14*
G04 #@! TO.C,R6*
X237000000Y-120620000D03*
X237000000Y-113000000D03*
G04 #@! TD*
D12*
G04 #@! TO.C,D2*
X176460000Y-102000000D03*
D13*
X179000000Y-102000000D03*
G04 #@! TD*
D12*
G04 #@! TO.C,D4*
X259460000Y-102000000D03*
D13*
X262000000Y-102000000D03*
G04 #@! TD*
D15*
G04 #@! TO.C,R7*
X204300000Y-86000000D03*
X207700000Y-86000000D03*
G04 #@! TD*
D14*
G04 #@! TO.C,R2*
X174000000Y-96810000D03*
X174000000Y-89190000D03*
G04 #@! TD*
G04 #@! TO.C,R1*
X174000000Y-78190000D03*
X174000000Y-85810000D03*
G04 #@! TD*
D12*
G04 #@! TO.C,D3*
X260460000Y-72000000D03*
D13*
X263000000Y-72000000D03*
G04 #@! TD*
D14*
G04 #@! TO.C,R3*
X264000000Y-78190000D03*
X264000000Y-85810000D03*
G04 #@! TD*
D12*
G04 #@! TO.C,D5*
X205460000Y-121000000D03*
D13*
X208000000Y-121000000D03*
G04 #@! TD*
D16*
G04 #@! TO.C,Q1*
X218460000Y-86400000D03*
D17*
X219730000Y-84330000D03*
X221000000Y-86400000D03*
G04 #@! TD*
%LPD*%
M02*
