%TF.GenerationSoftware,KiCad,Pcbnew,9.0.2*%
%TF.CreationDate,2025-06-05T15:07:43-05:00*%
%TF.ProjectId,bow,626f772e-6b69-4636-9164-5f7063625858,rev?*%
%TF.SameCoordinates,Original*%
%TF.FileFunction,Drillmap*%
%TF.FilePolarity,Positive*%
%FSLAX45Y45*%
G04 Gerber Fmt 4.5, Leading zero omitted, Abs format (unit mm)*
G04 Created by KiCad (PCBNEW 9.0.2) date 2025-06-05 15:07:43*
%MOMM*%
%LPD*%
G01*
G04 APERTURE LIST*
%ADD10C,0.050000*%
%ADD11C,0.200000*%
%ADD12C,0.100000*%
G04 APERTURE END LIST*
D10*
X26750000Y-7000000D02*
X26750000Y-10500000D01*
X26250000Y-10750000D01*
X25000000Y-10750000D01*
X24000000Y-10250000D01*
X22750000Y-9000000D01*
X24250000Y-11250000D01*
X24250000Y-12500000D01*
X23500000Y-13000000D01*
X22500000Y-12500000D01*
X22000000Y-9500000D01*
X21750000Y-9500000D01*
X21250000Y-12500000D01*
X20250000Y-13000000D01*
X19500000Y-12500000D01*
X19500000Y-11250000D01*
X21250000Y-9000000D01*
X19775000Y-10250000D01*
X18750000Y-10750000D01*
X17500000Y-10750000D01*
X17000000Y-10500000D01*
X17000000Y-7000000D01*
X17500000Y-6525000D01*
X19000000Y-6500000D01*
X20250000Y-6975000D01*
X21275000Y-8025000D01*
X21750000Y-7500000D01*
X22300000Y-7500000D01*
X22750000Y-8000000D01*
X23750000Y-7000000D01*
X25025000Y-6500000D01*
X26250000Y-6500000D01*
X26750000Y-7000000D01*
D11*
D12*
X21808500Y-8562500D02*
X21883500Y-8637500D01*
X21883500Y-8562500D02*
X21808500Y-8637500D01*
X21935500Y-8435500D02*
X22010500Y-8510500D01*
X22010500Y-8435500D02*
X21935500Y-8510500D01*
X22062500Y-8562500D02*
X22137500Y-8637500D01*
X22137500Y-8562500D02*
X22062500Y-8637500D01*
X17440000Y-7819000D02*
G75*
G02*
X17360000Y-7819000I-40000J0D01*
G01*
X17360000Y-7819000D02*
G75*
G02*
X17440000Y-7819000I40000J0D01*
G01*
X17440000Y-8581000D02*
G75*
G02*
X17360000Y-8581000I-40000J0D01*
G01*
X17360000Y-8581000D02*
G75*
G02*
X17440000Y-8581000I40000J0D01*
G01*
X17440000Y-8919000D02*
G75*
G02*
X17360000Y-8919000I-40000J0D01*
G01*
X17360000Y-8919000D02*
G75*
G02*
X17440000Y-8919000I40000J0D01*
G01*
X17440000Y-9681000D02*
G75*
G02*
X17360000Y-9681000I-40000J0D01*
G01*
X17360000Y-9681000D02*
G75*
G02*
X17440000Y-9681000I40000J0D01*
G01*
X20140000Y-11300000D02*
G75*
G02*
X20060000Y-11300000I-40000J0D01*
G01*
X20060000Y-11300000D02*
G75*
G02*
X20140000Y-11300000I40000J0D01*
G01*
X20140000Y-12062000D02*
G75*
G02*
X20060000Y-12062000I-40000J0D01*
G01*
X20060000Y-12062000D02*
G75*
G02*
X20140000Y-12062000I40000J0D01*
G01*
X20470000Y-8600000D02*
G75*
G02*
X20390000Y-8600000I-40000J0D01*
G01*
X20390000Y-8600000D02*
G75*
G02*
X20470000Y-8600000I40000J0D01*
G01*
X20810000Y-8600000D02*
G75*
G02*
X20730000Y-8600000I-40000J0D01*
G01*
X20730000Y-8600000D02*
G75*
G02*
X20810000Y-8600000I40000J0D01*
G01*
X23740000Y-11300000D02*
G75*
G02*
X23660000Y-11300000I-40000J0D01*
G01*
X23660000Y-11300000D02*
G75*
G02*
X23740000Y-11300000I40000J0D01*
G01*
X23740000Y-12062000D02*
G75*
G02*
X23660000Y-12062000I-40000J0D01*
G01*
X23660000Y-12062000D02*
G75*
G02*
X23740000Y-12062000I40000J0D01*
G01*
X26440000Y-7819000D02*
G75*
G02*
X26360000Y-7819000I-40000J0D01*
G01*
X26360000Y-7819000D02*
G75*
G02*
X26440000Y-7819000I40000J0D01*
G01*
X26440000Y-8581000D02*
G75*
G02*
X26360000Y-8581000I-40000J0D01*
G01*
X26360000Y-8581000D02*
G75*
G02*
X26440000Y-8581000I40000J0D01*
G01*
X26440000Y-8919000D02*
G75*
G02*
X26360000Y-8919000I-40000J0D01*
G01*
X26360000Y-8919000D02*
G75*
G02*
X26440000Y-8919000I40000J0D01*
G01*
X26440000Y-9681000D02*
G75*
G02*
X26360000Y-9681000I-40000J0D01*
G01*
X26360000Y-9681000D02*
G75*
G02*
X26440000Y-9681000I40000J0D01*
G01*
X17546000Y-7155000D02*
X17546000Y-7245000D01*
X17501000Y-7200000D02*
X17591000Y-7200000D01*
X17646000Y-10155000D02*
X17646000Y-10245000D01*
X17601000Y-10200000D02*
X17691000Y-10200000D01*
X17800000Y-7155000D02*
X17800000Y-7245000D01*
X17755000Y-7200000D02*
X17845000Y-7200000D01*
X17900000Y-10155000D02*
X17900000Y-10245000D01*
X17855000Y-10200000D02*
X17945000Y-10200000D01*
X20546000Y-12055000D02*
X20546000Y-12145000D01*
X20501000Y-12100000D02*
X20591000Y-12100000D01*
X20800000Y-12055000D02*
X20800000Y-12145000D01*
X20755000Y-12100000D02*
X20845000Y-12100000D01*
X23046000Y-12055000D02*
X23046000Y-12145000D01*
X23001000Y-12100000D02*
X23091000Y-12100000D01*
X23300000Y-12055000D02*
X23300000Y-12145000D01*
X23255000Y-12100000D02*
X23345000Y-12100000D01*
X25946000Y-10155000D02*
X25946000Y-10245000D01*
X25901000Y-10200000D02*
X25991000Y-10200000D01*
X26046000Y-7155000D02*
X26046000Y-7245000D01*
X26001000Y-7200000D02*
X26091000Y-7200000D01*
X26200000Y-10155000D02*
X26200000Y-10245000D01*
X26155000Y-10200000D02*
X26245000Y-10200000D01*
X26300000Y-7155000D02*
X26300000Y-7245000D01*
X26255000Y-7200000D02*
X26345000Y-7200000D01*
D11*
X17258277Y-13313984D02*
X17258277Y-13113984D01*
X17258277Y-13113984D02*
X17305896Y-13113984D01*
X17305896Y-13113984D02*
X17334467Y-13123508D01*
X17334467Y-13123508D02*
X17353515Y-13142555D01*
X17353515Y-13142555D02*
X17363039Y-13161603D01*
X17363039Y-13161603D02*
X17372563Y-13199698D01*
X17372563Y-13199698D02*
X17372563Y-13228269D01*
X17372563Y-13228269D02*
X17363039Y-13266365D01*
X17363039Y-13266365D02*
X17353515Y-13285412D01*
X17353515Y-13285412D02*
X17334467Y-13304460D01*
X17334467Y-13304460D02*
X17305896Y-13313984D01*
X17305896Y-13313984D02*
X17258277Y-13313984D01*
X17458277Y-13313984D02*
X17458277Y-13180650D01*
X17458277Y-13218746D02*
X17467801Y-13199698D01*
X17467801Y-13199698D02*
X17477324Y-13190174D01*
X17477324Y-13190174D02*
X17496372Y-13180650D01*
X17496372Y-13180650D02*
X17515420Y-13180650D01*
X17582086Y-13313984D02*
X17582086Y-13180650D01*
X17582086Y-13113984D02*
X17572563Y-13123508D01*
X17572563Y-13123508D02*
X17582086Y-13133031D01*
X17582086Y-13133031D02*
X17591610Y-13123508D01*
X17591610Y-13123508D02*
X17582086Y-13113984D01*
X17582086Y-13113984D02*
X17582086Y-13133031D01*
X17705896Y-13313984D02*
X17686848Y-13304460D01*
X17686848Y-13304460D02*
X17677324Y-13285412D01*
X17677324Y-13285412D02*
X17677324Y-13113984D01*
X17810658Y-13313984D02*
X17791610Y-13304460D01*
X17791610Y-13304460D02*
X17782086Y-13285412D01*
X17782086Y-13285412D02*
X17782086Y-13113984D01*
X18039229Y-13313984D02*
X18039229Y-13113984D01*
X18039229Y-13113984D02*
X18105896Y-13256841D01*
X18105896Y-13256841D02*
X18172563Y-13113984D01*
X18172563Y-13113984D02*
X18172563Y-13313984D01*
X18353515Y-13313984D02*
X18353515Y-13209222D01*
X18353515Y-13209222D02*
X18343991Y-13190174D01*
X18343991Y-13190174D02*
X18324944Y-13180650D01*
X18324944Y-13180650D02*
X18286848Y-13180650D01*
X18286848Y-13180650D02*
X18267801Y-13190174D01*
X18353515Y-13304460D02*
X18334467Y-13313984D01*
X18334467Y-13313984D02*
X18286848Y-13313984D01*
X18286848Y-13313984D02*
X18267801Y-13304460D01*
X18267801Y-13304460D02*
X18258277Y-13285412D01*
X18258277Y-13285412D02*
X18258277Y-13266365D01*
X18258277Y-13266365D02*
X18267801Y-13247317D01*
X18267801Y-13247317D02*
X18286848Y-13237793D01*
X18286848Y-13237793D02*
X18334467Y-13237793D01*
X18334467Y-13237793D02*
X18353515Y-13228269D01*
X18448753Y-13180650D02*
X18448753Y-13380650D01*
X18448753Y-13190174D02*
X18467801Y-13180650D01*
X18467801Y-13180650D02*
X18505896Y-13180650D01*
X18505896Y-13180650D02*
X18524944Y-13190174D01*
X18524944Y-13190174D02*
X18534467Y-13199698D01*
X18534467Y-13199698D02*
X18543991Y-13218746D01*
X18543991Y-13218746D02*
X18543991Y-13275888D01*
X18543991Y-13275888D02*
X18534467Y-13294936D01*
X18534467Y-13294936D02*
X18524944Y-13304460D01*
X18524944Y-13304460D02*
X18505896Y-13313984D01*
X18505896Y-13313984D02*
X18467801Y-13313984D01*
X18467801Y-13313984D02*
X18448753Y-13304460D01*
X18629705Y-13294936D02*
X18639229Y-13304460D01*
X18639229Y-13304460D02*
X18629705Y-13313984D01*
X18629705Y-13313984D02*
X18620182Y-13304460D01*
X18620182Y-13304460D02*
X18629705Y-13294936D01*
X18629705Y-13294936D02*
X18629705Y-13313984D01*
X18629705Y-13190174D02*
X18639229Y-13199698D01*
X18639229Y-13199698D02*
X18629705Y-13209222D01*
X18629705Y-13209222D02*
X18620182Y-13199698D01*
X18620182Y-13199698D02*
X18629705Y-13190174D01*
X18629705Y-13190174D02*
X18629705Y-13209222D01*
D12*
X16922500Y-13605000D02*
X16997500Y-13680000D01*
X16997500Y-13605000D02*
X16922500Y-13680000D01*
D11*
X17296372Y-13533984D02*
X17315420Y-13533984D01*
X17315420Y-13533984D02*
X17334467Y-13543508D01*
X17334467Y-13543508D02*
X17343991Y-13553031D01*
X17343991Y-13553031D02*
X17353515Y-13572079D01*
X17353515Y-13572079D02*
X17363039Y-13610174D01*
X17363039Y-13610174D02*
X17363039Y-13657793D01*
X17363039Y-13657793D02*
X17353515Y-13695888D01*
X17353515Y-13695888D02*
X17343991Y-13714936D01*
X17343991Y-13714936D02*
X17334467Y-13724460D01*
X17334467Y-13724460D02*
X17315420Y-13733984D01*
X17315420Y-13733984D02*
X17296372Y-13733984D01*
X17296372Y-13733984D02*
X17277324Y-13724460D01*
X17277324Y-13724460D02*
X17267801Y-13714936D01*
X17267801Y-13714936D02*
X17258277Y-13695888D01*
X17258277Y-13695888D02*
X17248753Y-13657793D01*
X17248753Y-13657793D02*
X17248753Y-13610174D01*
X17248753Y-13610174D02*
X17258277Y-13572079D01*
X17258277Y-13572079D02*
X17267801Y-13553031D01*
X17267801Y-13553031D02*
X17277324Y-13543508D01*
X17277324Y-13543508D02*
X17296372Y-13533984D01*
X17448753Y-13714936D02*
X17458277Y-13724460D01*
X17458277Y-13724460D02*
X17448753Y-13733984D01*
X17448753Y-13733984D02*
X17439229Y-13724460D01*
X17439229Y-13724460D02*
X17448753Y-13714936D01*
X17448753Y-13714936D02*
X17448753Y-13733984D01*
X17524944Y-13533984D02*
X17658277Y-13533984D01*
X17658277Y-13533984D02*
X17572563Y-13733984D01*
X17829705Y-13533984D02*
X17734467Y-13533984D01*
X17734467Y-13533984D02*
X17724944Y-13629222D01*
X17724944Y-13629222D02*
X17734467Y-13619698D01*
X17734467Y-13619698D02*
X17753515Y-13610174D01*
X17753515Y-13610174D02*
X17801134Y-13610174D01*
X17801134Y-13610174D02*
X17820182Y-13619698D01*
X17820182Y-13619698D02*
X17829705Y-13629222D01*
X17829705Y-13629222D02*
X17839229Y-13648269D01*
X17839229Y-13648269D02*
X17839229Y-13695888D01*
X17839229Y-13695888D02*
X17829705Y-13714936D01*
X17829705Y-13714936D02*
X17820182Y-13724460D01*
X17820182Y-13724460D02*
X17801134Y-13733984D01*
X17801134Y-13733984D02*
X17753515Y-13733984D01*
X17753515Y-13733984D02*
X17734467Y-13724460D01*
X17734467Y-13724460D02*
X17724944Y-13714936D01*
X17963039Y-13533984D02*
X17982086Y-13533984D01*
X17982086Y-13533984D02*
X18001134Y-13543508D01*
X18001134Y-13543508D02*
X18010658Y-13553031D01*
X18010658Y-13553031D02*
X18020182Y-13572079D01*
X18020182Y-13572079D02*
X18029705Y-13610174D01*
X18029705Y-13610174D02*
X18029705Y-13657793D01*
X18029705Y-13657793D02*
X18020182Y-13695888D01*
X18020182Y-13695888D02*
X18010658Y-13714936D01*
X18010658Y-13714936D02*
X18001134Y-13724460D01*
X18001134Y-13724460D02*
X17982086Y-13733984D01*
X17982086Y-13733984D02*
X17963039Y-13733984D01*
X17963039Y-13733984D02*
X17943991Y-13724460D01*
X17943991Y-13724460D02*
X17934467Y-13714936D01*
X17934467Y-13714936D02*
X17924944Y-13695888D01*
X17924944Y-13695888D02*
X17915420Y-13657793D01*
X17915420Y-13657793D02*
X17915420Y-13610174D01*
X17915420Y-13610174D02*
X17924944Y-13572079D01*
X17924944Y-13572079D02*
X17934467Y-13553031D01*
X17934467Y-13553031D02*
X17943991Y-13543508D01*
X17943991Y-13543508D02*
X17963039Y-13533984D01*
X18115420Y-13733984D02*
X18115420Y-13600650D01*
X18115420Y-13619698D02*
X18124944Y-13610174D01*
X18124944Y-13610174D02*
X18143991Y-13600650D01*
X18143991Y-13600650D02*
X18172563Y-13600650D01*
X18172563Y-13600650D02*
X18191610Y-13610174D01*
X18191610Y-13610174D02*
X18201134Y-13629222D01*
X18201134Y-13629222D02*
X18201134Y-13733984D01*
X18201134Y-13629222D02*
X18210658Y-13610174D01*
X18210658Y-13610174D02*
X18229705Y-13600650D01*
X18229705Y-13600650D02*
X18258277Y-13600650D01*
X18258277Y-13600650D02*
X18277325Y-13610174D01*
X18277325Y-13610174D02*
X18286848Y-13629222D01*
X18286848Y-13629222D02*
X18286848Y-13733984D01*
X18382086Y-13733984D02*
X18382086Y-13600650D01*
X18382086Y-13619698D02*
X18391610Y-13610174D01*
X18391610Y-13610174D02*
X18410658Y-13600650D01*
X18410658Y-13600650D02*
X18439229Y-13600650D01*
X18439229Y-13600650D02*
X18458277Y-13610174D01*
X18458277Y-13610174D02*
X18467801Y-13629222D01*
X18467801Y-13629222D02*
X18467801Y-13733984D01*
X18467801Y-13629222D02*
X18477325Y-13610174D01*
X18477325Y-13610174D02*
X18496372Y-13600650D01*
X18496372Y-13600650D02*
X18524944Y-13600650D01*
X18524944Y-13600650D02*
X18543991Y-13610174D01*
X18543991Y-13610174D02*
X18553515Y-13629222D01*
X18553515Y-13629222D02*
X18553515Y-13733984D01*
X18943991Y-13524460D02*
X18772563Y-13781603D01*
X19201134Y-13533984D02*
X19220182Y-13533984D01*
X19220182Y-13533984D02*
X19239229Y-13543508D01*
X19239229Y-13543508D02*
X19248753Y-13553031D01*
X19248753Y-13553031D02*
X19258277Y-13572079D01*
X19258277Y-13572079D02*
X19267801Y-13610174D01*
X19267801Y-13610174D02*
X19267801Y-13657793D01*
X19267801Y-13657793D02*
X19258277Y-13695888D01*
X19258277Y-13695888D02*
X19248753Y-13714936D01*
X19248753Y-13714936D02*
X19239229Y-13724460D01*
X19239229Y-13724460D02*
X19220182Y-13733984D01*
X19220182Y-13733984D02*
X19201134Y-13733984D01*
X19201134Y-13733984D02*
X19182087Y-13724460D01*
X19182087Y-13724460D02*
X19172563Y-13714936D01*
X19172563Y-13714936D02*
X19163039Y-13695888D01*
X19163039Y-13695888D02*
X19153515Y-13657793D01*
X19153515Y-13657793D02*
X19153515Y-13610174D01*
X19153515Y-13610174D02*
X19163039Y-13572079D01*
X19163039Y-13572079D02*
X19172563Y-13553031D01*
X19172563Y-13553031D02*
X19182087Y-13543508D01*
X19182087Y-13543508D02*
X19201134Y-13533984D01*
X19353515Y-13714936D02*
X19363039Y-13724460D01*
X19363039Y-13724460D02*
X19353515Y-13733984D01*
X19353515Y-13733984D02*
X19343991Y-13724460D01*
X19343991Y-13724460D02*
X19353515Y-13714936D01*
X19353515Y-13714936D02*
X19353515Y-13733984D01*
X19486848Y-13533984D02*
X19505896Y-13533984D01*
X19505896Y-13533984D02*
X19524944Y-13543508D01*
X19524944Y-13543508D02*
X19534468Y-13553031D01*
X19534468Y-13553031D02*
X19543991Y-13572079D01*
X19543991Y-13572079D02*
X19553515Y-13610174D01*
X19553515Y-13610174D02*
X19553515Y-13657793D01*
X19553515Y-13657793D02*
X19543991Y-13695888D01*
X19543991Y-13695888D02*
X19534468Y-13714936D01*
X19534468Y-13714936D02*
X19524944Y-13724460D01*
X19524944Y-13724460D02*
X19505896Y-13733984D01*
X19505896Y-13733984D02*
X19486848Y-13733984D01*
X19486848Y-13733984D02*
X19467801Y-13724460D01*
X19467801Y-13724460D02*
X19458277Y-13714936D01*
X19458277Y-13714936D02*
X19448753Y-13695888D01*
X19448753Y-13695888D02*
X19439229Y-13657793D01*
X19439229Y-13657793D02*
X19439229Y-13610174D01*
X19439229Y-13610174D02*
X19448753Y-13572079D01*
X19448753Y-13572079D02*
X19458277Y-13553031D01*
X19458277Y-13553031D02*
X19467801Y-13543508D01*
X19467801Y-13543508D02*
X19486848Y-13533984D01*
X19629706Y-13553031D02*
X19639229Y-13543508D01*
X19639229Y-13543508D02*
X19658277Y-13533984D01*
X19658277Y-13533984D02*
X19705896Y-13533984D01*
X19705896Y-13533984D02*
X19724944Y-13543508D01*
X19724944Y-13543508D02*
X19734468Y-13553031D01*
X19734468Y-13553031D02*
X19743991Y-13572079D01*
X19743991Y-13572079D02*
X19743991Y-13591127D01*
X19743991Y-13591127D02*
X19734468Y-13619698D01*
X19734468Y-13619698D02*
X19620182Y-13733984D01*
X19620182Y-13733984D02*
X19743991Y-13733984D01*
X19839229Y-13733984D02*
X19877325Y-13733984D01*
X19877325Y-13733984D02*
X19896372Y-13724460D01*
X19896372Y-13724460D02*
X19905896Y-13714936D01*
X19905896Y-13714936D02*
X19924944Y-13686365D01*
X19924944Y-13686365D02*
X19934468Y-13648269D01*
X19934468Y-13648269D02*
X19934468Y-13572079D01*
X19934468Y-13572079D02*
X19924944Y-13553031D01*
X19924944Y-13553031D02*
X19915420Y-13543508D01*
X19915420Y-13543508D02*
X19896372Y-13533984D01*
X19896372Y-13533984D02*
X19858277Y-13533984D01*
X19858277Y-13533984D02*
X19839229Y-13543508D01*
X19839229Y-13543508D02*
X19829706Y-13553031D01*
X19829706Y-13553031D02*
X19820182Y-13572079D01*
X19820182Y-13572079D02*
X19820182Y-13619698D01*
X19820182Y-13619698D02*
X19829706Y-13638746D01*
X19829706Y-13638746D02*
X19839229Y-13648269D01*
X19839229Y-13648269D02*
X19858277Y-13657793D01*
X19858277Y-13657793D02*
X19896372Y-13657793D01*
X19896372Y-13657793D02*
X19915420Y-13648269D01*
X19915420Y-13648269D02*
X19924944Y-13638746D01*
X19924944Y-13638746D02*
X19934468Y-13619698D01*
X20115420Y-13533984D02*
X20020182Y-13533984D01*
X20020182Y-13533984D02*
X20010658Y-13629222D01*
X20010658Y-13629222D02*
X20020182Y-13619698D01*
X20020182Y-13619698D02*
X20039229Y-13610174D01*
X20039229Y-13610174D02*
X20086849Y-13610174D01*
X20086849Y-13610174D02*
X20105896Y-13619698D01*
X20105896Y-13619698D02*
X20115420Y-13629222D01*
X20115420Y-13629222D02*
X20124944Y-13648269D01*
X20124944Y-13648269D02*
X20124944Y-13695888D01*
X20124944Y-13695888D02*
X20115420Y-13714936D01*
X20115420Y-13714936D02*
X20105896Y-13724460D01*
X20105896Y-13724460D02*
X20086849Y-13733984D01*
X20086849Y-13733984D02*
X20039229Y-13733984D01*
X20039229Y-13733984D02*
X20020182Y-13724460D01*
X20020182Y-13724460D02*
X20010658Y-13714936D01*
X20201134Y-13533984D02*
X20201134Y-13572079D01*
X20277325Y-13533984D02*
X20277325Y-13572079D01*
X20572563Y-13810174D02*
X20563039Y-13800650D01*
X20563039Y-13800650D02*
X20543991Y-13772079D01*
X20543991Y-13772079D02*
X20534468Y-13753031D01*
X20534468Y-13753031D02*
X20524944Y-13724460D01*
X20524944Y-13724460D02*
X20515420Y-13676841D01*
X20515420Y-13676841D02*
X20515420Y-13638746D01*
X20515420Y-13638746D02*
X20524944Y-13591127D01*
X20524944Y-13591127D02*
X20534468Y-13562555D01*
X20534468Y-13562555D02*
X20543991Y-13543508D01*
X20543991Y-13543508D02*
X20563039Y-13514936D01*
X20563039Y-13514936D02*
X20572563Y-13505412D01*
X20629706Y-13533984D02*
X20753515Y-13533984D01*
X20753515Y-13533984D02*
X20686849Y-13610174D01*
X20686849Y-13610174D02*
X20715420Y-13610174D01*
X20715420Y-13610174D02*
X20734468Y-13619698D01*
X20734468Y-13619698D02*
X20743991Y-13629222D01*
X20743991Y-13629222D02*
X20753515Y-13648269D01*
X20753515Y-13648269D02*
X20753515Y-13695888D01*
X20753515Y-13695888D02*
X20743991Y-13714936D01*
X20743991Y-13714936D02*
X20734468Y-13724460D01*
X20734468Y-13724460D02*
X20715420Y-13733984D01*
X20715420Y-13733984D02*
X20658277Y-13733984D01*
X20658277Y-13733984D02*
X20639230Y-13724460D01*
X20639230Y-13724460D02*
X20629706Y-13714936D01*
X20991611Y-13733984D02*
X20991611Y-13533984D01*
X21077325Y-13733984D02*
X21077325Y-13629222D01*
X21077325Y-13629222D02*
X21067801Y-13610174D01*
X21067801Y-13610174D02*
X21048753Y-13600650D01*
X21048753Y-13600650D02*
X21020182Y-13600650D01*
X21020182Y-13600650D02*
X21001134Y-13610174D01*
X21001134Y-13610174D02*
X20991611Y-13619698D01*
X21201134Y-13733984D02*
X21182087Y-13724460D01*
X21182087Y-13724460D02*
X21172563Y-13714936D01*
X21172563Y-13714936D02*
X21163039Y-13695888D01*
X21163039Y-13695888D02*
X21163039Y-13638746D01*
X21163039Y-13638746D02*
X21172563Y-13619698D01*
X21172563Y-13619698D02*
X21182087Y-13610174D01*
X21182087Y-13610174D02*
X21201134Y-13600650D01*
X21201134Y-13600650D02*
X21229706Y-13600650D01*
X21229706Y-13600650D02*
X21248753Y-13610174D01*
X21248753Y-13610174D02*
X21258277Y-13619698D01*
X21258277Y-13619698D02*
X21267801Y-13638746D01*
X21267801Y-13638746D02*
X21267801Y-13695888D01*
X21267801Y-13695888D02*
X21258277Y-13714936D01*
X21258277Y-13714936D02*
X21248753Y-13724460D01*
X21248753Y-13724460D02*
X21229706Y-13733984D01*
X21229706Y-13733984D02*
X21201134Y-13733984D01*
X21382087Y-13733984D02*
X21363039Y-13724460D01*
X21363039Y-13724460D02*
X21353515Y-13705412D01*
X21353515Y-13705412D02*
X21353515Y-13533984D01*
X21534468Y-13724460D02*
X21515420Y-13733984D01*
X21515420Y-13733984D02*
X21477325Y-13733984D01*
X21477325Y-13733984D02*
X21458277Y-13724460D01*
X21458277Y-13724460D02*
X21448753Y-13705412D01*
X21448753Y-13705412D02*
X21448753Y-13629222D01*
X21448753Y-13629222D02*
X21458277Y-13610174D01*
X21458277Y-13610174D02*
X21477325Y-13600650D01*
X21477325Y-13600650D02*
X21515420Y-13600650D01*
X21515420Y-13600650D02*
X21534468Y-13610174D01*
X21534468Y-13610174D02*
X21543992Y-13629222D01*
X21543992Y-13629222D02*
X21543992Y-13648269D01*
X21543992Y-13648269D02*
X21448753Y-13667317D01*
X21620182Y-13724460D02*
X21639230Y-13733984D01*
X21639230Y-13733984D02*
X21677325Y-13733984D01*
X21677325Y-13733984D02*
X21696373Y-13724460D01*
X21696373Y-13724460D02*
X21705896Y-13705412D01*
X21705896Y-13705412D02*
X21705896Y-13695888D01*
X21705896Y-13695888D02*
X21696373Y-13676841D01*
X21696373Y-13676841D02*
X21677325Y-13667317D01*
X21677325Y-13667317D02*
X21648753Y-13667317D01*
X21648753Y-13667317D02*
X21629706Y-13657793D01*
X21629706Y-13657793D02*
X21620182Y-13638746D01*
X21620182Y-13638746D02*
X21620182Y-13629222D01*
X21620182Y-13629222D02*
X21629706Y-13610174D01*
X21629706Y-13610174D02*
X21648753Y-13600650D01*
X21648753Y-13600650D02*
X21677325Y-13600650D01*
X21677325Y-13600650D02*
X21696373Y-13610174D01*
X21772563Y-13810174D02*
X21782087Y-13800650D01*
X21782087Y-13800650D02*
X21801134Y-13772079D01*
X21801134Y-13772079D02*
X21810658Y-13753031D01*
X21810658Y-13753031D02*
X21820182Y-13724460D01*
X21820182Y-13724460D02*
X21829706Y-13676841D01*
X21829706Y-13676841D02*
X21829706Y-13638746D01*
X21829706Y-13638746D02*
X21820182Y-13591127D01*
X21820182Y-13591127D02*
X21810658Y-13562555D01*
X21810658Y-13562555D02*
X21801134Y-13543508D01*
X21801134Y-13543508D02*
X21782087Y-13514936D01*
X21782087Y-13514936D02*
X21772563Y-13505412D01*
D12*
X16997500Y-13906500D02*
G75*
G02*
X16917500Y-13906500I-40000J0D01*
G01*
X16917500Y-13906500D02*
G75*
G02*
X16997500Y-13906500I40000J0D01*
G01*
D11*
X17296372Y-13797984D02*
X17315420Y-13797984D01*
X17315420Y-13797984D02*
X17334467Y-13807508D01*
X17334467Y-13807508D02*
X17343991Y-13817031D01*
X17343991Y-13817031D02*
X17353515Y-13836079D01*
X17353515Y-13836079D02*
X17363039Y-13874174D01*
X17363039Y-13874174D02*
X17363039Y-13921793D01*
X17363039Y-13921793D02*
X17353515Y-13959888D01*
X17353515Y-13959888D02*
X17343991Y-13978936D01*
X17343991Y-13978936D02*
X17334467Y-13988460D01*
X17334467Y-13988460D02*
X17315420Y-13997984D01*
X17315420Y-13997984D02*
X17296372Y-13997984D01*
X17296372Y-13997984D02*
X17277324Y-13988460D01*
X17277324Y-13988460D02*
X17267801Y-13978936D01*
X17267801Y-13978936D02*
X17258277Y-13959888D01*
X17258277Y-13959888D02*
X17248753Y-13921793D01*
X17248753Y-13921793D02*
X17248753Y-13874174D01*
X17248753Y-13874174D02*
X17258277Y-13836079D01*
X17258277Y-13836079D02*
X17267801Y-13817031D01*
X17267801Y-13817031D02*
X17277324Y-13807508D01*
X17277324Y-13807508D02*
X17296372Y-13797984D01*
X17448753Y-13978936D02*
X17458277Y-13988460D01*
X17458277Y-13988460D02*
X17448753Y-13997984D01*
X17448753Y-13997984D02*
X17439229Y-13988460D01*
X17439229Y-13988460D02*
X17448753Y-13978936D01*
X17448753Y-13978936D02*
X17448753Y-13997984D01*
X17572563Y-13883698D02*
X17553515Y-13874174D01*
X17553515Y-13874174D02*
X17543991Y-13864650D01*
X17543991Y-13864650D02*
X17534467Y-13845603D01*
X17534467Y-13845603D02*
X17534467Y-13836079D01*
X17534467Y-13836079D02*
X17543991Y-13817031D01*
X17543991Y-13817031D02*
X17553515Y-13807508D01*
X17553515Y-13807508D02*
X17572563Y-13797984D01*
X17572563Y-13797984D02*
X17610658Y-13797984D01*
X17610658Y-13797984D02*
X17629705Y-13807508D01*
X17629705Y-13807508D02*
X17639229Y-13817031D01*
X17639229Y-13817031D02*
X17648753Y-13836079D01*
X17648753Y-13836079D02*
X17648753Y-13845603D01*
X17648753Y-13845603D02*
X17639229Y-13864650D01*
X17639229Y-13864650D02*
X17629705Y-13874174D01*
X17629705Y-13874174D02*
X17610658Y-13883698D01*
X17610658Y-13883698D02*
X17572563Y-13883698D01*
X17572563Y-13883698D02*
X17553515Y-13893222D01*
X17553515Y-13893222D02*
X17543991Y-13902746D01*
X17543991Y-13902746D02*
X17534467Y-13921793D01*
X17534467Y-13921793D02*
X17534467Y-13959888D01*
X17534467Y-13959888D02*
X17543991Y-13978936D01*
X17543991Y-13978936D02*
X17553515Y-13988460D01*
X17553515Y-13988460D02*
X17572563Y-13997984D01*
X17572563Y-13997984D02*
X17610658Y-13997984D01*
X17610658Y-13997984D02*
X17629705Y-13988460D01*
X17629705Y-13988460D02*
X17639229Y-13978936D01*
X17639229Y-13978936D02*
X17648753Y-13959888D01*
X17648753Y-13959888D02*
X17648753Y-13921793D01*
X17648753Y-13921793D02*
X17639229Y-13902746D01*
X17639229Y-13902746D02*
X17629705Y-13893222D01*
X17629705Y-13893222D02*
X17610658Y-13883698D01*
X17772563Y-13797984D02*
X17791610Y-13797984D01*
X17791610Y-13797984D02*
X17810658Y-13807508D01*
X17810658Y-13807508D02*
X17820182Y-13817031D01*
X17820182Y-13817031D02*
X17829705Y-13836079D01*
X17829705Y-13836079D02*
X17839229Y-13874174D01*
X17839229Y-13874174D02*
X17839229Y-13921793D01*
X17839229Y-13921793D02*
X17829705Y-13959888D01*
X17829705Y-13959888D02*
X17820182Y-13978936D01*
X17820182Y-13978936D02*
X17810658Y-13988460D01*
X17810658Y-13988460D02*
X17791610Y-13997984D01*
X17791610Y-13997984D02*
X17772563Y-13997984D01*
X17772563Y-13997984D02*
X17753515Y-13988460D01*
X17753515Y-13988460D02*
X17743991Y-13978936D01*
X17743991Y-13978936D02*
X17734467Y-13959888D01*
X17734467Y-13959888D02*
X17724944Y-13921793D01*
X17724944Y-13921793D02*
X17724944Y-13874174D01*
X17724944Y-13874174D02*
X17734467Y-13836079D01*
X17734467Y-13836079D02*
X17743991Y-13817031D01*
X17743991Y-13817031D02*
X17753515Y-13807508D01*
X17753515Y-13807508D02*
X17772563Y-13797984D01*
X17963039Y-13797984D02*
X17982086Y-13797984D01*
X17982086Y-13797984D02*
X18001134Y-13807508D01*
X18001134Y-13807508D02*
X18010658Y-13817031D01*
X18010658Y-13817031D02*
X18020182Y-13836079D01*
X18020182Y-13836079D02*
X18029705Y-13874174D01*
X18029705Y-13874174D02*
X18029705Y-13921793D01*
X18029705Y-13921793D02*
X18020182Y-13959888D01*
X18020182Y-13959888D02*
X18010658Y-13978936D01*
X18010658Y-13978936D02*
X18001134Y-13988460D01*
X18001134Y-13988460D02*
X17982086Y-13997984D01*
X17982086Y-13997984D02*
X17963039Y-13997984D01*
X17963039Y-13997984D02*
X17943991Y-13988460D01*
X17943991Y-13988460D02*
X17934467Y-13978936D01*
X17934467Y-13978936D02*
X17924944Y-13959888D01*
X17924944Y-13959888D02*
X17915420Y-13921793D01*
X17915420Y-13921793D02*
X17915420Y-13874174D01*
X17915420Y-13874174D02*
X17924944Y-13836079D01*
X17924944Y-13836079D02*
X17934467Y-13817031D01*
X17934467Y-13817031D02*
X17943991Y-13807508D01*
X17943991Y-13807508D02*
X17963039Y-13797984D01*
X18115420Y-13997984D02*
X18115420Y-13864650D01*
X18115420Y-13883698D02*
X18124944Y-13874174D01*
X18124944Y-13874174D02*
X18143991Y-13864650D01*
X18143991Y-13864650D02*
X18172563Y-13864650D01*
X18172563Y-13864650D02*
X18191610Y-13874174D01*
X18191610Y-13874174D02*
X18201134Y-13893222D01*
X18201134Y-13893222D02*
X18201134Y-13997984D01*
X18201134Y-13893222D02*
X18210658Y-13874174D01*
X18210658Y-13874174D02*
X18229705Y-13864650D01*
X18229705Y-13864650D02*
X18258277Y-13864650D01*
X18258277Y-13864650D02*
X18277325Y-13874174D01*
X18277325Y-13874174D02*
X18286848Y-13893222D01*
X18286848Y-13893222D02*
X18286848Y-13997984D01*
X18382086Y-13997984D02*
X18382086Y-13864650D01*
X18382086Y-13883698D02*
X18391610Y-13874174D01*
X18391610Y-13874174D02*
X18410658Y-13864650D01*
X18410658Y-13864650D02*
X18439229Y-13864650D01*
X18439229Y-13864650D02*
X18458277Y-13874174D01*
X18458277Y-13874174D02*
X18467801Y-13893222D01*
X18467801Y-13893222D02*
X18467801Y-13997984D01*
X18467801Y-13893222D02*
X18477325Y-13874174D01*
X18477325Y-13874174D02*
X18496372Y-13864650D01*
X18496372Y-13864650D02*
X18524944Y-13864650D01*
X18524944Y-13864650D02*
X18543991Y-13874174D01*
X18543991Y-13874174D02*
X18553515Y-13893222D01*
X18553515Y-13893222D02*
X18553515Y-13997984D01*
X18943991Y-13788460D02*
X18772563Y-14045603D01*
X19201134Y-13797984D02*
X19220182Y-13797984D01*
X19220182Y-13797984D02*
X19239229Y-13807508D01*
X19239229Y-13807508D02*
X19248753Y-13817031D01*
X19248753Y-13817031D02*
X19258277Y-13836079D01*
X19258277Y-13836079D02*
X19267801Y-13874174D01*
X19267801Y-13874174D02*
X19267801Y-13921793D01*
X19267801Y-13921793D02*
X19258277Y-13959888D01*
X19258277Y-13959888D02*
X19248753Y-13978936D01*
X19248753Y-13978936D02*
X19239229Y-13988460D01*
X19239229Y-13988460D02*
X19220182Y-13997984D01*
X19220182Y-13997984D02*
X19201134Y-13997984D01*
X19201134Y-13997984D02*
X19182087Y-13988460D01*
X19182087Y-13988460D02*
X19172563Y-13978936D01*
X19172563Y-13978936D02*
X19163039Y-13959888D01*
X19163039Y-13959888D02*
X19153515Y-13921793D01*
X19153515Y-13921793D02*
X19153515Y-13874174D01*
X19153515Y-13874174D02*
X19163039Y-13836079D01*
X19163039Y-13836079D02*
X19172563Y-13817031D01*
X19172563Y-13817031D02*
X19182087Y-13807508D01*
X19182087Y-13807508D02*
X19201134Y-13797984D01*
X19353515Y-13978936D02*
X19363039Y-13988460D01*
X19363039Y-13988460D02*
X19353515Y-13997984D01*
X19353515Y-13997984D02*
X19343991Y-13988460D01*
X19343991Y-13988460D02*
X19353515Y-13978936D01*
X19353515Y-13978936D02*
X19353515Y-13997984D01*
X19486848Y-13797984D02*
X19505896Y-13797984D01*
X19505896Y-13797984D02*
X19524944Y-13807508D01*
X19524944Y-13807508D02*
X19534468Y-13817031D01*
X19534468Y-13817031D02*
X19543991Y-13836079D01*
X19543991Y-13836079D02*
X19553515Y-13874174D01*
X19553515Y-13874174D02*
X19553515Y-13921793D01*
X19553515Y-13921793D02*
X19543991Y-13959888D01*
X19543991Y-13959888D02*
X19534468Y-13978936D01*
X19534468Y-13978936D02*
X19524944Y-13988460D01*
X19524944Y-13988460D02*
X19505896Y-13997984D01*
X19505896Y-13997984D02*
X19486848Y-13997984D01*
X19486848Y-13997984D02*
X19467801Y-13988460D01*
X19467801Y-13988460D02*
X19458277Y-13978936D01*
X19458277Y-13978936D02*
X19448753Y-13959888D01*
X19448753Y-13959888D02*
X19439229Y-13921793D01*
X19439229Y-13921793D02*
X19439229Y-13874174D01*
X19439229Y-13874174D02*
X19448753Y-13836079D01*
X19448753Y-13836079D02*
X19458277Y-13817031D01*
X19458277Y-13817031D02*
X19467801Y-13807508D01*
X19467801Y-13807508D02*
X19486848Y-13797984D01*
X19620182Y-13797984D02*
X19743991Y-13797984D01*
X19743991Y-13797984D02*
X19677325Y-13874174D01*
X19677325Y-13874174D02*
X19705896Y-13874174D01*
X19705896Y-13874174D02*
X19724944Y-13883698D01*
X19724944Y-13883698D02*
X19734468Y-13893222D01*
X19734468Y-13893222D02*
X19743991Y-13912269D01*
X19743991Y-13912269D02*
X19743991Y-13959888D01*
X19743991Y-13959888D02*
X19734468Y-13978936D01*
X19734468Y-13978936D02*
X19724944Y-13988460D01*
X19724944Y-13988460D02*
X19705896Y-13997984D01*
X19705896Y-13997984D02*
X19648753Y-13997984D01*
X19648753Y-13997984D02*
X19629706Y-13988460D01*
X19629706Y-13988460D02*
X19620182Y-13978936D01*
X19934468Y-13997984D02*
X19820182Y-13997984D01*
X19877325Y-13997984D02*
X19877325Y-13797984D01*
X19877325Y-13797984D02*
X19858277Y-13826555D01*
X19858277Y-13826555D02*
X19839229Y-13845603D01*
X19839229Y-13845603D02*
X19820182Y-13855127D01*
X20115420Y-13797984D02*
X20020182Y-13797984D01*
X20020182Y-13797984D02*
X20010658Y-13893222D01*
X20010658Y-13893222D02*
X20020182Y-13883698D01*
X20020182Y-13883698D02*
X20039229Y-13874174D01*
X20039229Y-13874174D02*
X20086849Y-13874174D01*
X20086849Y-13874174D02*
X20105896Y-13883698D01*
X20105896Y-13883698D02*
X20115420Y-13893222D01*
X20115420Y-13893222D02*
X20124944Y-13912269D01*
X20124944Y-13912269D02*
X20124944Y-13959888D01*
X20124944Y-13959888D02*
X20115420Y-13978936D01*
X20115420Y-13978936D02*
X20105896Y-13988460D01*
X20105896Y-13988460D02*
X20086849Y-13997984D01*
X20086849Y-13997984D02*
X20039229Y-13997984D01*
X20039229Y-13997984D02*
X20020182Y-13988460D01*
X20020182Y-13988460D02*
X20010658Y-13978936D01*
X20201134Y-13797984D02*
X20201134Y-13836079D01*
X20277325Y-13797984D02*
X20277325Y-13836079D01*
X20572563Y-14074174D02*
X20563039Y-14064650D01*
X20563039Y-14064650D02*
X20543991Y-14036079D01*
X20543991Y-14036079D02*
X20534468Y-14017031D01*
X20534468Y-14017031D02*
X20524944Y-13988460D01*
X20524944Y-13988460D02*
X20515420Y-13940841D01*
X20515420Y-13940841D02*
X20515420Y-13902746D01*
X20515420Y-13902746D02*
X20524944Y-13855127D01*
X20524944Y-13855127D02*
X20534468Y-13826555D01*
X20534468Y-13826555D02*
X20543991Y-13807508D01*
X20543991Y-13807508D02*
X20563039Y-13778936D01*
X20563039Y-13778936D02*
X20572563Y-13769412D01*
X20753515Y-13997984D02*
X20639230Y-13997984D01*
X20696372Y-13997984D02*
X20696372Y-13797984D01*
X20696372Y-13797984D02*
X20677325Y-13826555D01*
X20677325Y-13826555D02*
X20658277Y-13845603D01*
X20658277Y-13845603D02*
X20639230Y-13855127D01*
X20924944Y-13864650D02*
X20924944Y-13997984D01*
X20877325Y-13788460D02*
X20829706Y-13931317D01*
X20829706Y-13931317D02*
X20953515Y-13931317D01*
X21182087Y-13997984D02*
X21182087Y-13797984D01*
X21267801Y-13997984D02*
X21267801Y-13893222D01*
X21267801Y-13893222D02*
X21258277Y-13874174D01*
X21258277Y-13874174D02*
X21239230Y-13864650D01*
X21239230Y-13864650D02*
X21210658Y-13864650D01*
X21210658Y-13864650D02*
X21191611Y-13874174D01*
X21191611Y-13874174D02*
X21182087Y-13883698D01*
X21391611Y-13997984D02*
X21372563Y-13988460D01*
X21372563Y-13988460D02*
X21363039Y-13978936D01*
X21363039Y-13978936D02*
X21353515Y-13959888D01*
X21353515Y-13959888D02*
X21353515Y-13902746D01*
X21353515Y-13902746D02*
X21363039Y-13883698D01*
X21363039Y-13883698D02*
X21372563Y-13874174D01*
X21372563Y-13874174D02*
X21391611Y-13864650D01*
X21391611Y-13864650D02*
X21420182Y-13864650D01*
X21420182Y-13864650D02*
X21439230Y-13874174D01*
X21439230Y-13874174D02*
X21448753Y-13883698D01*
X21448753Y-13883698D02*
X21458277Y-13902746D01*
X21458277Y-13902746D02*
X21458277Y-13959888D01*
X21458277Y-13959888D02*
X21448753Y-13978936D01*
X21448753Y-13978936D02*
X21439230Y-13988460D01*
X21439230Y-13988460D02*
X21420182Y-13997984D01*
X21420182Y-13997984D02*
X21391611Y-13997984D01*
X21572563Y-13997984D02*
X21553515Y-13988460D01*
X21553515Y-13988460D02*
X21543992Y-13969412D01*
X21543992Y-13969412D02*
X21543992Y-13797984D01*
X21724944Y-13988460D02*
X21705896Y-13997984D01*
X21705896Y-13997984D02*
X21667801Y-13997984D01*
X21667801Y-13997984D02*
X21648753Y-13988460D01*
X21648753Y-13988460D02*
X21639230Y-13969412D01*
X21639230Y-13969412D02*
X21639230Y-13893222D01*
X21639230Y-13893222D02*
X21648753Y-13874174D01*
X21648753Y-13874174D02*
X21667801Y-13864650D01*
X21667801Y-13864650D02*
X21705896Y-13864650D01*
X21705896Y-13864650D02*
X21724944Y-13874174D01*
X21724944Y-13874174D02*
X21734468Y-13893222D01*
X21734468Y-13893222D02*
X21734468Y-13912269D01*
X21734468Y-13912269D02*
X21639230Y-13931317D01*
X21810658Y-13988460D02*
X21829706Y-13997984D01*
X21829706Y-13997984D02*
X21867801Y-13997984D01*
X21867801Y-13997984D02*
X21886849Y-13988460D01*
X21886849Y-13988460D02*
X21896373Y-13969412D01*
X21896373Y-13969412D02*
X21896373Y-13959888D01*
X21896373Y-13959888D02*
X21886849Y-13940841D01*
X21886849Y-13940841D02*
X21867801Y-13931317D01*
X21867801Y-13931317D02*
X21839230Y-13931317D01*
X21839230Y-13931317D02*
X21820182Y-13921793D01*
X21820182Y-13921793D02*
X21810658Y-13902746D01*
X21810658Y-13902746D02*
X21810658Y-13893222D01*
X21810658Y-13893222D02*
X21820182Y-13874174D01*
X21820182Y-13874174D02*
X21839230Y-13864650D01*
X21839230Y-13864650D02*
X21867801Y-13864650D01*
X21867801Y-13864650D02*
X21886849Y-13874174D01*
X21963039Y-14074174D02*
X21972563Y-14064650D01*
X21972563Y-14064650D02*
X21991611Y-14036079D01*
X21991611Y-14036079D02*
X22001134Y-14017031D01*
X22001134Y-14017031D02*
X22010658Y-13988460D01*
X22010658Y-13988460D02*
X22020182Y-13940841D01*
X22020182Y-13940841D02*
X22020182Y-13902746D01*
X22020182Y-13902746D02*
X22010658Y-13855127D01*
X22010658Y-13855127D02*
X22001134Y-13826555D01*
X22001134Y-13826555D02*
X21991611Y-13807508D01*
X21991611Y-13807508D02*
X21972563Y-13778936D01*
X21972563Y-13778936D02*
X21963039Y-13769412D01*
D12*
X16952500Y-14125500D02*
X16952500Y-14215500D01*
X16907500Y-14170500D02*
X16997500Y-14170500D01*
D11*
X17296372Y-14061984D02*
X17315420Y-14061984D01*
X17315420Y-14061984D02*
X17334467Y-14071508D01*
X17334467Y-14071508D02*
X17343991Y-14081031D01*
X17343991Y-14081031D02*
X17353515Y-14100079D01*
X17353515Y-14100079D02*
X17363039Y-14138174D01*
X17363039Y-14138174D02*
X17363039Y-14185793D01*
X17363039Y-14185793D02*
X17353515Y-14223888D01*
X17353515Y-14223888D02*
X17343991Y-14242936D01*
X17343991Y-14242936D02*
X17334467Y-14252460D01*
X17334467Y-14252460D02*
X17315420Y-14261984D01*
X17315420Y-14261984D02*
X17296372Y-14261984D01*
X17296372Y-14261984D02*
X17277324Y-14252460D01*
X17277324Y-14252460D02*
X17267801Y-14242936D01*
X17267801Y-14242936D02*
X17258277Y-14223888D01*
X17258277Y-14223888D02*
X17248753Y-14185793D01*
X17248753Y-14185793D02*
X17248753Y-14138174D01*
X17248753Y-14138174D02*
X17258277Y-14100079D01*
X17258277Y-14100079D02*
X17267801Y-14081031D01*
X17267801Y-14081031D02*
X17277324Y-14071508D01*
X17277324Y-14071508D02*
X17296372Y-14061984D01*
X17448753Y-14242936D02*
X17458277Y-14252460D01*
X17458277Y-14252460D02*
X17448753Y-14261984D01*
X17448753Y-14261984D02*
X17439229Y-14252460D01*
X17439229Y-14252460D02*
X17448753Y-14242936D01*
X17448753Y-14242936D02*
X17448753Y-14261984D01*
X17553515Y-14261984D02*
X17591610Y-14261984D01*
X17591610Y-14261984D02*
X17610658Y-14252460D01*
X17610658Y-14252460D02*
X17620182Y-14242936D01*
X17620182Y-14242936D02*
X17639229Y-14214365D01*
X17639229Y-14214365D02*
X17648753Y-14176269D01*
X17648753Y-14176269D02*
X17648753Y-14100079D01*
X17648753Y-14100079D02*
X17639229Y-14081031D01*
X17639229Y-14081031D02*
X17629705Y-14071508D01*
X17629705Y-14071508D02*
X17610658Y-14061984D01*
X17610658Y-14061984D02*
X17572563Y-14061984D01*
X17572563Y-14061984D02*
X17553515Y-14071508D01*
X17553515Y-14071508D02*
X17543991Y-14081031D01*
X17543991Y-14081031D02*
X17534467Y-14100079D01*
X17534467Y-14100079D02*
X17534467Y-14147698D01*
X17534467Y-14147698D02*
X17543991Y-14166746D01*
X17543991Y-14166746D02*
X17553515Y-14176269D01*
X17553515Y-14176269D02*
X17572563Y-14185793D01*
X17572563Y-14185793D02*
X17610658Y-14185793D01*
X17610658Y-14185793D02*
X17629705Y-14176269D01*
X17629705Y-14176269D02*
X17639229Y-14166746D01*
X17639229Y-14166746D02*
X17648753Y-14147698D01*
X17772563Y-14061984D02*
X17791610Y-14061984D01*
X17791610Y-14061984D02*
X17810658Y-14071508D01*
X17810658Y-14071508D02*
X17820182Y-14081031D01*
X17820182Y-14081031D02*
X17829705Y-14100079D01*
X17829705Y-14100079D02*
X17839229Y-14138174D01*
X17839229Y-14138174D02*
X17839229Y-14185793D01*
X17839229Y-14185793D02*
X17829705Y-14223888D01*
X17829705Y-14223888D02*
X17820182Y-14242936D01*
X17820182Y-14242936D02*
X17810658Y-14252460D01*
X17810658Y-14252460D02*
X17791610Y-14261984D01*
X17791610Y-14261984D02*
X17772563Y-14261984D01*
X17772563Y-14261984D02*
X17753515Y-14252460D01*
X17753515Y-14252460D02*
X17743991Y-14242936D01*
X17743991Y-14242936D02*
X17734467Y-14223888D01*
X17734467Y-14223888D02*
X17724944Y-14185793D01*
X17724944Y-14185793D02*
X17724944Y-14138174D01*
X17724944Y-14138174D02*
X17734467Y-14100079D01*
X17734467Y-14100079D02*
X17743991Y-14081031D01*
X17743991Y-14081031D02*
X17753515Y-14071508D01*
X17753515Y-14071508D02*
X17772563Y-14061984D01*
X17963039Y-14061984D02*
X17982086Y-14061984D01*
X17982086Y-14061984D02*
X18001134Y-14071508D01*
X18001134Y-14071508D02*
X18010658Y-14081031D01*
X18010658Y-14081031D02*
X18020182Y-14100079D01*
X18020182Y-14100079D02*
X18029705Y-14138174D01*
X18029705Y-14138174D02*
X18029705Y-14185793D01*
X18029705Y-14185793D02*
X18020182Y-14223888D01*
X18020182Y-14223888D02*
X18010658Y-14242936D01*
X18010658Y-14242936D02*
X18001134Y-14252460D01*
X18001134Y-14252460D02*
X17982086Y-14261984D01*
X17982086Y-14261984D02*
X17963039Y-14261984D01*
X17963039Y-14261984D02*
X17943991Y-14252460D01*
X17943991Y-14252460D02*
X17934467Y-14242936D01*
X17934467Y-14242936D02*
X17924944Y-14223888D01*
X17924944Y-14223888D02*
X17915420Y-14185793D01*
X17915420Y-14185793D02*
X17915420Y-14138174D01*
X17915420Y-14138174D02*
X17924944Y-14100079D01*
X17924944Y-14100079D02*
X17934467Y-14081031D01*
X17934467Y-14081031D02*
X17943991Y-14071508D01*
X17943991Y-14071508D02*
X17963039Y-14061984D01*
X18115420Y-14261984D02*
X18115420Y-14128650D01*
X18115420Y-14147698D02*
X18124944Y-14138174D01*
X18124944Y-14138174D02*
X18143991Y-14128650D01*
X18143991Y-14128650D02*
X18172563Y-14128650D01*
X18172563Y-14128650D02*
X18191610Y-14138174D01*
X18191610Y-14138174D02*
X18201134Y-14157222D01*
X18201134Y-14157222D02*
X18201134Y-14261984D01*
X18201134Y-14157222D02*
X18210658Y-14138174D01*
X18210658Y-14138174D02*
X18229705Y-14128650D01*
X18229705Y-14128650D02*
X18258277Y-14128650D01*
X18258277Y-14128650D02*
X18277325Y-14138174D01*
X18277325Y-14138174D02*
X18286848Y-14157222D01*
X18286848Y-14157222D02*
X18286848Y-14261984D01*
X18382086Y-14261984D02*
X18382086Y-14128650D01*
X18382086Y-14147698D02*
X18391610Y-14138174D01*
X18391610Y-14138174D02*
X18410658Y-14128650D01*
X18410658Y-14128650D02*
X18439229Y-14128650D01*
X18439229Y-14128650D02*
X18458277Y-14138174D01*
X18458277Y-14138174D02*
X18467801Y-14157222D01*
X18467801Y-14157222D02*
X18467801Y-14261984D01*
X18467801Y-14157222D02*
X18477325Y-14138174D01*
X18477325Y-14138174D02*
X18496372Y-14128650D01*
X18496372Y-14128650D02*
X18524944Y-14128650D01*
X18524944Y-14128650D02*
X18543991Y-14138174D01*
X18543991Y-14138174D02*
X18553515Y-14157222D01*
X18553515Y-14157222D02*
X18553515Y-14261984D01*
X18943991Y-14052460D02*
X18772563Y-14309603D01*
X19201134Y-14061984D02*
X19220182Y-14061984D01*
X19220182Y-14061984D02*
X19239229Y-14071508D01*
X19239229Y-14071508D02*
X19248753Y-14081031D01*
X19248753Y-14081031D02*
X19258277Y-14100079D01*
X19258277Y-14100079D02*
X19267801Y-14138174D01*
X19267801Y-14138174D02*
X19267801Y-14185793D01*
X19267801Y-14185793D02*
X19258277Y-14223888D01*
X19258277Y-14223888D02*
X19248753Y-14242936D01*
X19248753Y-14242936D02*
X19239229Y-14252460D01*
X19239229Y-14252460D02*
X19220182Y-14261984D01*
X19220182Y-14261984D02*
X19201134Y-14261984D01*
X19201134Y-14261984D02*
X19182087Y-14252460D01*
X19182087Y-14252460D02*
X19172563Y-14242936D01*
X19172563Y-14242936D02*
X19163039Y-14223888D01*
X19163039Y-14223888D02*
X19153515Y-14185793D01*
X19153515Y-14185793D02*
X19153515Y-14138174D01*
X19153515Y-14138174D02*
X19163039Y-14100079D01*
X19163039Y-14100079D02*
X19172563Y-14081031D01*
X19172563Y-14081031D02*
X19182087Y-14071508D01*
X19182087Y-14071508D02*
X19201134Y-14061984D01*
X19353515Y-14242936D02*
X19363039Y-14252460D01*
X19363039Y-14252460D02*
X19353515Y-14261984D01*
X19353515Y-14261984D02*
X19343991Y-14252460D01*
X19343991Y-14252460D02*
X19353515Y-14242936D01*
X19353515Y-14242936D02*
X19353515Y-14261984D01*
X19486848Y-14061984D02*
X19505896Y-14061984D01*
X19505896Y-14061984D02*
X19524944Y-14071508D01*
X19524944Y-14071508D02*
X19534468Y-14081031D01*
X19534468Y-14081031D02*
X19543991Y-14100079D01*
X19543991Y-14100079D02*
X19553515Y-14138174D01*
X19553515Y-14138174D02*
X19553515Y-14185793D01*
X19553515Y-14185793D02*
X19543991Y-14223888D01*
X19543991Y-14223888D02*
X19534468Y-14242936D01*
X19534468Y-14242936D02*
X19524944Y-14252460D01*
X19524944Y-14252460D02*
X19505896Y-14261984D01*
X19505896Y-14261984D02*
X19486848Y-14261984D01*
X19486848Y-14261984D02*
X19467801Y-14252460D01*
X19467801Y-14252460D02*
X19458277Y-14242936D01*
X19458277Y-14242936D02*
X19448753Y-14223888D01*
X19448753Y-14223888D02*
X19439229Y-14185793D01*
X19439229Y-14185793D02*
X19439229Y-14138174D01*
X19439229Y-14138174D02*
X19448753Y-14100079D01*
X19448753Y-14100079D02*
X19458277Y-14081031D01*
X19458277Y-14081031D02*
X19467801Y-14071508D01*
X19467801Y-14071508D02*
X19486848Y-14061984D01*
X19620182Y-14061984D02*
X19743991Y-14061984D01*
X19743991Y-14061984D02*
X19677325Y-14138174D01*
X19677325Y-14138174D02*
X19705896Y-14138174D01*
X19705896Y-14138174D02*
X19724944Y-14147698D01*
X19724944Y-14147698D02*
X19734468Y-14157222D01*
X19734468Y-14157222D02*
X19743991Y-14176269D01*
X19743991Y-14176269D02*
X19743991Y-14223888D01*
X19743991Y-14223888D02*
X19734468Y-14242936D01*
X19734468Y-14242936D02*
X19724944Y-14252460D01*
X19724944Y-14252460D02*
X19705896Y-14261984D01*
X19705896Y-14261984D02*
X19648753Y-14261984D01*
X19648753Y-14261984D02*
X19629706Y-14252460D01*
X19629706Y-14252460D02*
X19620182Y-14242936D01*
X19924944Y-14061984D02*
X19829706Y-14061984D01*
X19829706Y-14061984D02*
X19820182Y-14157222D01*
X19820182Y-14157222D02*
X19829706Y-14147698D01*
X19829706Y-14147698D02*
X19848753Y-14138174D01*
X19848753Y-14138174D02*
X19896372Y-14138174D01*
X19896372Y-14138174D02*
X19915420Y-14147698D01*
X19915420Y-14147698D02*
X19924944Y-14157222D01*
X19924944Y-14157222D02*
X19934468Y-14176269D01*
X19934468Y-14176269D02*
X19934468Y-14223888D01*
X19934468Y-14223888D02*
X19924944Y-14242936D01*
X19924944Y-14242936D02*
X19915420Y-14252460D01*
X19915420Y-14252460D02*
X19896372Y-14261984D01*
X19896372Y-14261984D02*
X19848753Y-14261984D01*
X19848753Y-14261984D02*
X19829706Y-14252460D01*
X19829706Y-14252460D02*
X19820182Y-14242936D01*
X20105896Y-14128650D02*
X20105896Y-14261984D01*
X20058277Y-14052460D02*
X20010658Y-14195317D01*
X20010658Y-14195317D02*
X20134468Y-14195317D01*
X20201134Y-14061984D02*
X20201134Y-14100079D01*
X20277325Y-14061984D02*
X20277325Y-14100079D01*
X20572563Y-14338174D02*
X20563039Y-14328650D01*
X20563039Y-14328650D02*
X20543991Y-14300079D01*
X20543991Y-14300079D02*
X20534468Y-14281031D01*
X20534468Y-14281031D02*
X20524944Y-14252460D01*
X20524944Y-14252460D02*
X20515420Y-14204841D01*
X20515420Y-14204841D02*
X20515420Y-14166746D01*
X20515420Y-14166746D02*
X20524944Y-14119127D01*
X20524944Y-14119127D02*
X20534468Y-14090555D01*
X20534468Y-14090555D02*
X20543991Y-14071508D01*
X20543991Y-14071508D02*
X20563039Y-14042936D01*
X20563039Y-14042936D02*
X20572563Y-14033412D01*
X20753515Y-14261984D02*
X20639230Y-14261984D01*
X20696372Y-14261984D02*
X20696372Y-14061984D01*
X20696372Y-14061984D02*
X20677325Y-14090555D01*
X20677325Y-14090555D02*
X20658277Y-14109603D01*
X20658277Y-14109603D02*
X20639230Y-14119127D01*
X20829706Y-14081031D02*
X20839230Y-14071508D01*
X20839230Y-14071508D02*
X20858277Y-14061984D01*
X20858277Y-14061984D02*
X20905896Y-14061984D01*
X20905896Y-14061984D02*
X20924944Y-14071508D01*
X20924944Y-14071508D02*
X20934468Y-14081031D01*
X20934468Y-14081031D02*
X20943991Y-14100079D01*
X20943991Y-14100079D02*
X20943991Y-14119127D01*
X20943991Y-14119127D02*
X20934468Y-14147698D01*
X20934468Y-14147698D02*
X20820182Y-14261984D01*
X20820182Y-14261984D02*
X20943991Y-14261984D01*
X21182087Y-14261984D02*
X21182087Y-14061984D01*
X21267801Y-14261984D02*
X21267801Y-14157222D01*
X21267801Y-14157222D02*
X21258277Y-14138174D01*
X21258277Y-14138174D02*
X21239230Y-14128650D01*
X21239230Y-14128650D02*
X21210658Y-14128650D01*
X21210658Y-14128650D02*
X21191611Y-14138174D01*
X21191611Y-14138174D02*
X21182087Y-14147698D01*
X21391611Y-14261984D02*
X21372563Y-14252460D01*
X21372563Y-14252460D02*
X21363039Y-14242936D01*
X21363039Y-14242936D02*
X21353515Y-14223888D01*
X21353515Y-14223888D02*
X21353515Y-14166746D01*
X21353515Y-14166746D02*
X21363039Y-14147698D01*
X21363039Y-14147698D02*
X21372563Y-14138174D01*
X21372563Y-14138174D02*
X21391611Y-14128650D01*
X21391611Y-14128650D02*
X21420182Y-14128650D01*
X21420182Y-14128650D02*
X21439230Y-14138174D01*
X21439230Y-14138174D02*
X21448753Y-14147698D01*
X21448753Y-14147698D02*
X21458277Y-14166746D01*
X21458277Y-14166746D02*
X21458277Y-14223888D01*
X21458277Y-14223888D02*
X21448753Y-14242936D01*
X21448753Y-14242936D02*
X21439230Y-14252460D01*
X21439230Y-14252460D02*
X21420182Y-14261984D01*
X21420182Y-14261984D02*
X21391611Y-14261984D01*
X21572563Y-14261984D02*
X21553515Y-14252460D01*
X21553515Y-14252460D02*
X21543992Y-14233412D01*
X21543992Y-14233412D02*
X21543992Y-14061984D01*
X21724944Y-14252460D02*
X21705896Y-14261984D01*
X21705896Y-14261984D02*
X21667801Y-14261984D01*
X21667801Y-14261984D02*
X21648753Y-14252460D01*
X21648753Y-14252460D02*
X21639230Y-14233412D01*
X21639230Y-14233412D02*
X21639230Y-14157222D01*
X21639230Y-14157222D02*
X21648753Y-14138174D01*
X21648753Y-14138174D02*
X21667801Y-14128650D01*
X21667801Y-14128650D02*
X21705896Y-14128650D01*
X21705896Y-14128650D02*
X21724944Y-14138174D01*
X21724944Y-14138174D02*
X21734468Y-14157222D01*
X21734468Y-14157222D02*
X21734468Y-14176269D01*
X21734468Y-14176269D02*
X21639230Y-14195317D01*
X21810658Y-14252460D02*
X21829706Y-14261984D01*
X21829706Y-14261984D02*
X21867801Y-14261984D01*
X21867801Y-14261984D02*
X21886849Y-14252460D01*
X21886849Y-14252460D02*
X21896373Y-14233412D01*
X21896373Y-14233412D02*
X21896373Y-14223888D01*
X21896373Y-14223888D02*
X21886849Y-14204841D01*
X21886849Y-14204841D02*
X21867801Y-14195317D01*
X21867801Y-14195317D02*
X21839230Y-14195317D01*
X21839230Y-14195317D02*
X21820182Y-14185793D01*
X21820182Y-14185793D02*
X21810658Y-14166746D01*
X21810658Y-14166746D02*
X21810658Y-14157222D01*
X21810658Y-14157222D02*
X21820182Y-14138174D01*
X21820182Y-14138174D02*
X21839230Y-14128650D01*
X21839230Y-14128650D02*
X21867801Y-14128650D01*
X21867801Y-14128650D02*
X21886849Y-14138174D01*
X21963039Y-14338174D02*
X21972563Y-14328650D01*
X21972563Y-14328650D02*
X21991611Y-14300079D01*
X21991611Y-14300079D02*
X22001134Y-14281031D01*
X22001134Y-14281031D02*
X22010658Y-14252460D01*
X22010658Y-14252460D02*
X22020182Y-14204841D01*
X22020182Y-14204841D02*
X22020182Y-14166746D01*
X22020182Y-14166746D02*
X22010658Y-14119127D01*
X22010658Y-14119127D02*
X22001134Y-14090555D01*
X22001134Y-14090555D02*
X21991611Y-14071508D01*
X21991611Y-14071508D02*
X21972563Y-14042936D01*
X21972563Y-14042936D02*
X21963039Y-14033412D01*
M02*
